<?xml version="1.0" encoding="UTF-8"?>
<svg id="Layer_1" data-name="Layer 1" xmlns="http://www.w3.org/2000/svg" viewBox="0 0 2978.97 462">
  <defs>
    <style>
      .cls-1 {
        fill: #40615f;
      }
    </style>
  </defs>
  <path class="cls-1" d="m2260.56,6.17c-2.32-3.8-3.46-4.93-3.44-3.39-1.14-.75-2.09-1.5-2.86-2.24-.76-.74-2.64-.72-5.64.08-1.11.65-2.15.98-3.09,1-.94.02-1.69.35-2.23.98-.56.64-1.02.95-1.4.96-.75.01-1.51.03-2.25.04,0,.38-.57,0-1.71-1.1-1.15-1.11-1.91-1.66-2.29-1.65-3.02-.32-4.51-.29-4.5.08-1.13.02-2.06.51-2.8,1.46-3.01.05-5.06.56-6.17,1.52-6.77.12-10.74-.75-11.89-2.61,1.14.92-.18,1.41-3.93,1.48-.36,1.33-1.86,1.82-4.48,1.49-2.28-1.84-3.81-2.75-4.55-2.74.74-.01-.75.49-4.48,1.49-.39,0-.94.49-1.67,1.44-.39,0-.76.01-1.13.02-.77-.92-2.28-1.48-4.54-1.68-2.25-.19-3.77-.52-4.52-.98l-4.51.08c-.75.01-1.5.03-2.25.04.75.46-1.49.73-6.75.82-1.5.5-3,1-4.48,1.49,0,.48-2.24.74-6.76.82l-15.79.28c-4.14.07-7.52.13-10.15.18-.74.39-1.31.4-1.69.03h-.57c-3.38.07-5.26.29-5.63.65-1.88.4-3.37.61-4.5.62-2.22,1.5-3.33,2.8-3.31,3.89.02,1.09-.53,1.83-1.65,2.22-.73,1.48-1.08,2.75-1.06,3.84-.71,2.57-.31,4.02,1.2,4.36,1.51.34,2.55.78,3.13,1.32.58.54,1.23.89,1.99,1.06.74.17,1.5.43,2.26.78.75-.01,1.5-.03,2.26-.04.75.37,1.32.54,1.7.53,0-.37,1.12-.39,3.38-.06.76.74,2.08,1.29,3.98,1.62,0,.38.38.56,1.13.54,3.02.71,6.03,1.22,9.05,1.53.38,0,.93-.2,1.69-.59,1.12-.02,1.88-.03,2.25-.04,0-.37.92-.58,2.81-.61.76.74,1.89.53,3.37-.62,1.5-.03,3.56-.53,6.18-1.52,2.61-.98,4.76-1.49,6.46-1.52,1.69-.03,3.66-.25,5.9-.67.75-.01,1.7.25,2.84.8,1.13.54,1.98.91,2.55,1.08.58.18,1.23.45,1.99.81l.05,2.82c-.38.39-.75.58-1.12.58-.73,1.52-1.46,2.48-2.2,2.86-2.96,3.44-5.53,6.86-7.72,10.29-1.46,2.66-2.38,3.8-2.76,3.43-.39-.36-1.12.21-2.22,1.73-1.1,1.53-1.85,2.38-2.21,2.58-.38.2-.93.58-1.68,1.16-.74.58-1.3,1.15-1.66,1.72-.37.57-.63,1.24-.81,1.99-.18.76-.54,1.33-1.09,1.71-.57.39-1.02,1.52-1.36,3.41-1.44,3.41-2.35,5.21-2.72,5.41-.38.2-1.03.49-1.96.88-.93.4-1.39.78-1.39,1.15-2.63.05-3.55,1.38-2.75,4-.71,2.27-2,3.61-3.88,4.02,0,.38-.37.67-1.11.87-.75.21-.83.39-.27.57.57.18-1.02,1.24-4.74,3.18-.75.01-1.1,1.15-1.06,3.4-.75.39-1.48,1.72-2.19,3.99-.36.76-.9,1.8-1.64,3.13-.73,1.33-1.46,2.56-2.18,3.7-.74,1.14-.91,1.71-.54,1.7.02,1.51-.63,2.46-1.92,2.85-1.32.4-2.15.7-2.52.89-.38.2-.93.68-1.67,1.44-.74.77-1.21,1.06-1.4.87-.2-.18-.75.21-1.67,1.16-.93.96-1.48,1.72-1.66,2.29-.18.57-.63,1.42-1.36,2.56-.74,1.14-1.29,2-1.65,2.57-.38.57-.73,1.33-1.09,2.28-.37.95-.73,1.62-1.09,1.99-3.34,2.69-4.26,4.02-2.75,4-.37.76-1.11,1.15-2.24,1.17-1.49,1.15-2.41,2.3-2.76,3.43-.7,3.03-1.61,4.54-2.74,4.56l-1.11,1.15c-.33,2.64-1.25,3.97-2.75,3.99-1.49,1.15-2.98,2.12-4.46,2.9,0,.38-.27.95-.82,1.71-.55.77-.82,1.34-.81,1.71-1.11,1.15-1.66,2.2-1.64,3.13.02.94-.25,1.61-.81,1.99-.56.39-1.02.68-1.39.87-.38.2-1.03.49-1.96.88-.93.39-1.58,1.15-1.92,2.29l-2.2,3.42c-2.6,1.93-4.26,3.84-4.97,5.73-.75.39-1.67,1.44-2.77,3.15-1.1,1.71-2.01,3.33-2.73,4.84-.01-.37-.93.77-2.77,3.43-.35,1.51-.79,2.55-1.35,3.13s-1.02,1.24-1.38,2c-.37.76-.35,1.51.04,2.26.02.76-.45,1.42-1.37,2-.93.58-1.5.87-1.68.88-.2,0-.48.2-.84.58-.38,0-.75.01-1.12.02-1.11,1.15-2.22,1.92-3.34,2.31-1.12.4-2.42,1.93-3.87,4.58-.38,0-1.03.3-1.95.88-.93.58-1.59.97-1.95,1.16-.38.2-.93.49-1.68.88-1.08,3.03-1.99,4.55-2.74,4.56-1.1,1.91-1.65,2.66-1.66,2.29.03,1.89-.33,3.02-1.07,3.4-.74.39-1.3.78-1.67,1.16-1.87,1.16-3.25,2.13-4.18,2.89-.93.77-1.58,1.35-1.94,1.73-1.89.03-3.18,1.18-3.89,3.45-.38,0-.92,1.14-1.63,3.41l-3.34,2.31c.03,1.89-.89,3.21-2.75,4-.37.76-.74,1.14-1.11,1.15-.36,1.51-.71,2.27-1.09,2.27-.38,0-.74.49-1.1,1.43-.36.95-1.09,2.19-2.19,3.7-1.51.03-2.62.42-3.36,1.19l-2.8,1.18c-1.1,1.15-1.85,2.1-2.2,2.86-.37.76-.92,1.14-1.67,1.16-.41-1.12-.61-1.96-.62-2.53,0-.56-.41-1.97-1.2-4.21-.77-1.11-.61-2.61.49-4.52,0-.37.27-.94.81-1.71.56-.76.82-1.33.82-1.71-.02-.75-.23-1.49-.61-2.24-.4-.74-.88-1.96-1.48-3.64-.6-1.68-.89-2.89-.9-3.65.02,1.51.72-1.14,2.11-7.93-.4-1.12-.61-2.43-.63-3.94-.8-2.99-1.22-5.24-1.24-6.75.37,0,.72-1.33,1.05-3.97-.86-5.99-1.09-9-.71-9.01,0-.37-.02-.93-.03-1.69.36-.38.73-.95,1.09-1.71.36-.76.55-1.51.53-2.26.75-.01.71-2.27-.12-6.77,1.13-.02,1.29-1.71.48-5.08-.41-1.87-.63-3.37-.65-4.5-.02-1.5.14-2.63.51-3.39-.02-1.5-.05-3.19-.09-5.07-.02-1.5-.42-2.43-1.17-2.8-.39-.36-.4-1.12-.04-2.26.35-1.13.9-1.71,1.66-1.72.32-3.01.48-5.45.44-7.34-.39-.36-.78-1.48-1.18-3.36.69-3.02,1.04-4.9,1.02-5.66,0-.75.35-1.32,1.1-1.71,0-.75-.03-1.88-.06-3.38-.35,1.89-.57-.36-.68-6.76-1.89.03-2.1-2.03-.66-6.19,1.44-3.41,1.6-5.1.48-5.08-.05-2.62-.08-4.13-.08-4.51.72-1.14,1.09-1.9,1.08-2.28-.03-1.88.13-3.19.5-3.96.35-1.13.15-1.88-.61-2.25.4,1.5.58.55.52-2.83.73-.76,1.1-1.9,1.07-3.4-.05-2.63-.27-4.31-.65-5.06-.03-1.88-.06-3.38-.08-4.51,0-.75.16-1.88.51-3.39.35-1.5.52-2.63.51-3.39.73-.76.34-2.07-1.2-3.93-.02-1.13-.05-2.82-.09-5.07-.42-2.25-.63-3.56-.63-3.94-.07-3.75.47-5.65,1.59-5.67-.81-3.37-1.03-5.06-.65-5.06.73-1.14,1-2.08.8-2.83-.21-.75.26-1.22,1.38-1.43,1.13-.2,2.15-.6,3.09-1.18.92-.58,1.58-.87,1.95-.88,1.86-1.16,3.36-1.37,4.5-.64l2.28,1.65c1.88-.03,3.57.13,5.08.48l4.51-.08c1.12-.39,2.04-.97,2.79-1.74,4.48-2.33,6.11-5.18,4.92-8.55-.4-1.49-.61-2.43-.61-2.81.37,0,.35-1.32-.07-3.95-.04-2.26-1.39-3.73-4.03-4.44-1.13-.35-2.18-.71-3.12-1.07-.95-.35-2.19-1.18-3.71-2.47-1.53-1.29-3.8-1.91-6.8-1.86l-5.66-.47c-2.27-1.09-3.6-1.81-3.98-2.19-2.63.42-4.69.65-6.19.67-7.49,2.02-11.23,2.83-11.24,2.45-4.5.08-6.58.11-6.2.11-.38,0-1.89.03-4.5.08l-3.95.07c0,.45-1.3,1.14-3.91,2.07-5.26.54-9.2,1.05-11.82,1.54-1.13.02-1.89.26-2.24.71-3.76.07-6.01.33-6.76.78-.03-1.77-3.4-1.49-10.13.85-.38.46-2.24.94-5.62,1.44-3.37.5-6.57.78-9.58.83-3.02-.32-5.47-.84-7.35-1.56,0,.38-1.69.41-5.08.09,0-.37-.76-.36-2.25.04-1.5.41-2.24.8-2.23,1.17-1.49,1.15-2.79,2.02-3.91,2.61-1.11.58-1.29,1.63-.51,3.11-.74.77-1.29,1.53-1.65,2.28-1.9-.34-3.02-.04-3.37.9-.36.95-.54,1.8-.52,2.55-.36,1.13.05,2.82,1.21,5.05.02,1.13.69,1.96,2.02,2.5,1.32.54,2.17,1,2.56,1.37.38.37.85.74,1.43,1.1.57.37.94.74,1.15,1.11.19.38,1.32.64,3.39.79,2.06.16,3.48.42,4.25.77,7.9.62,11.09.93,9.59.96,1.5-.4,2.62-.79,3.36-1.19-.75.01.38.19,3.39.5-1.89.03-.94-.27,2.81-.89,3.74-.63,5.63-.38,5.65.75,2.26-.04,2.68,2.77,1.28,8.44-.38,0-.54,1.89-.47,5.65.76.74.96,1.31.6,1.68,0,.38-.27.76-.82,1.14-.57.39-.64.95-.26,1.7.4,1.5.8,3,1.21,4.49.03,1.89-.31,4.15-1.01,6.78,0-.37.03,1.69.11,6.2.74-.01.95,1.02.62,3.09-.34,2.08-.14,3.1.62,3.09.07,3.76.27,4.7.62,2.81,0,.38-.18.85-.54,1.42-.37.57-.52,2.93-.44,7.06,1.99,7.11,2.25,11.05.76,11.83-.33,2.64-.47,5.28-.43,7.9.02.76.02,1.22.03,1.41,0,.19.03,1.6.07,4.23,0,.38.02.94.03,1.69-.37.76-.54,1.52-.53,2.26-.36,1.13-.35,1.89.04,2.26.01.38.21,1.22.62,2.53.39,1.31.6,2.16.61,2.53-1.49,1.15-2.02,2.67-1.62,4.54.42,2.25.8,3,1.17,2.24-.37.76-.64,1.33-.81,1.71-.19.38-.36,1.33-.52,2.83-.17,1.51-.44,2.64-.79,3.4-.38,0,.21,1.32,1.77,3.92.38.37.77,1.49,1.18,3.36.01.38-.17.95-.53,1.7,0,.76.02,1.32.03,1.69-.39,0-.56.95-.52,2.83l.05,2.82c0,.76-.08,1.32-.26,1.7-.19.38-.46.77-.82,1.14.02,1.13.04,2.45.07,3.95.07,3.76.1,5.45.09,5.07,0,.38.2,1.04.6,1.96.39.94.6,1.59.6,1.96.04,2.26.08,4.33.11,6.2-.69,3.4-.85,5.09-.48,5.08.02.76.23,2.07.64,3.94.03,1.51.05,2.45.05,2.82.01.38.03,1.69.07,3.95-.36,1.13-.71,2.18-1.07,3.12-.37.95-.54,1.61-.53,1.98.74-.01.75.37.02,1.13l.04,2.25c-.39,0-.56.77-.53,2.27.4,1.5.41,2.25.04,2.26-.73,1.52-.9,2.46-.52,2.83.38.37.39.94.03,1.69-.37.76-.73,1.52-1.09,2.28.03,1.51.45,4.13,1.27,7.87,0-.37,0,.56.05,2.82-.74.77-1.09,2.09-1.06,3.97.06,3.38.1,5.45.11,6.2.37,0,.1.66-.81,1.99-.92,1.34-1.56,2.38-1.91,3.13-.7,3.03-.68,4.52.08,4.51.04,2.63.44,4.13,1.2,4.49.41,2.25.63,3.57.63,3.94.04,2.26.44,3.57,1.2,3.93.03,2.26.23,2.81.59,1.68-.36,1.13-.72,1.62-1.1,1.43-.38-.18-.34,2.36.14,7.61l.25,14.66c.79,2.62,1.41,5.05,1.83,7.3-.7,3.03-.68,4.52.08,4.51l.66,6.19c0,.38-.17,1.04-.53,1.98-.37.95-.54,1.61-.53,1.98-.72,2.27-.88,3.4-.51,3.39.78,1.87.98,3,.63,3.37-.76.01-1.1,1.9-1.03,5.66-.22,9.03-.33,13.92-.31,14.67.44,4.13.84,5.62,1.2,4.49-.34,1.89-.32,3.58.09,5.07-.35,1.51-.9,2.27-1.65,2.28v.56c-.37.39-.55.77-.54,1.14,0,.38.2.56.58.55,1.12-.02,1.16,2.24.12,6.77-.74,1.14-1.29,2.28-1.64,3.41-.33,3.02-.47,5.28-.45,6.78-1.1,1.53-1.28,2.47-.52,2.83,0,.38.21.94.6,1.68l.02,1.13c-.71,2.27-1.06,3.97-1.04,5.09-1.45,3.04-1.81,4.54-1.04,4.53,0,.38.2.94.6,1.68.01.76.02,1.32.03,1.69l-.48,5.08c.02,1.13-.16,2.45-.5,3.96.03,1.89.05,3.2.07,3.95-.33,3.39-.48,5.28-.47,5.65.04,2.63.08,4.51.1,5.64.05,3.01.27,5.07.66,6.19l.04,2.25c-.74.39-1.39.69-1.95.88-.56.2-.83.68-.82,1.42-1.88.41-4.13.45-6.77.12-2.64-.32-3.58-.5-2.83-.51-1.5.03-2.82.05-3.94.07-1.52-.34-3.02.05-4.49,1.21-5.97,2.74-9.15,4.11-9.52,4.11.75.37-.75.01-4.52-1.05-.37.76-1.1,1.53-2.22,2.29-1.11.78-1.68.79-1.69.03.74-.01,0,.19-2.24.6-.74.77-1.67,1.63-2.78,2.59-1.11.96-1.94,1.54-2.51,1.74-.56.2-1.31.78-2.22,1.73-.92.96-1.77,1.44-2.51,1.45-.76.01-.93.77-.53,2.26l-.45,6.78c.05,2.63,1,3.93,2.89,3.9.04,2.26.99,3.37,2.88,3.33.75.37,1.51.54,2.26.52,1.12-.39,1.88-.31,2.26.24.38.56.94.46,1.69-.31.75-.01,1.78-.22,3.1-.62,1.3-.39,2.24-.6,2.81-.61.56,0,1.02-.2,1.4-.59.75.37,1.32.54,1.7.53-.38,0,.75-.01,3.38-.06.37,0,1.13-.02,2.25-.04.74-.38,1.31-.59,1.69-.59.37,0,.93-.2,1.68-.59-.37.38.94.18,3.94-.63,1.51.35,2.45.72,2.84,1.08l3.37-.62c-.01-.75,1.87-.4,5.66,1.03,2.62-.42,5.07-.65,7.32-.69.74-.01,2.06-.04,3.94-.07,1.89-.03,3.19-.06,3.95-.07.39.75,1.72,1.29,3.98,1.62.01.76,1.8.73,5.36-.09,3.55-.81,5.34-.84,5.35-.09,1.89-.03,3.29.07,4.24.3.94.23,2.45.58,4.53,1.05,2.06.47,3.67.68,4.8.67l2.25-.04,1.13-.02c1.52,1.47,2.28,1.46,2.25-.04l5.08-.09c.74-.01,1.69-.03,2.82-.05,1.12-.02,1.88-.03,2.25-.04.37,0,1.13-.02,2.25-.04-1.89.03-1.12.02,2.25-.04.75-.01,1.7-.03,2.83-.05l5.64-.1,3.38-.06c1.88.35,3.01.33,3.38-.06,1.88-.03,3-.05,3.37-.06-2.25.04-1.12.02,3.38-.06.02.75,2.83.28,8.43-1.43,3.76-.07,5.82-.31,6.19-.75,2.58-2.51,3.89-3.4,3.9-2.65l4.51-.08c.76.74,1.34,1.48,1.73,2.23l5.65-.1c1.11-.77,2.32-1.26,3.63-1.47,1.31-.21,2.05-.41,2.25-.6.18-.19.73-.38,1.68-.59.93-.2,1.38-1.8,1.33-4.82.74-.01.71-1.89-.1-5.64.74-.01-.22-1.31-2.89-3.9-1.16-1.48-2.12-2.78-2.89-3.9-.02-1.13-.04-1.88-.04-2.26-.76-.36-1.34-.73-1.72-1.1-.39-.36-.95-.83-1.72-1.38s-1.33-.82-1.71-.82l-2.82.05c-1.15-1.48-2.67-2.02-4.53-1.61-1.13.02-2.44.52-3.92,1.48-1.5.97-2.8,1.46-3.93,1.48-2.23,1.17-4.3,1.4-6.19.67-.38,0-1.69.03-3.94.07-.39-.36-.86-.64-1.43-.82-.57-.17-2.82-.23-6.77-.16-3.95.07-5.92-.27-5.94-1.02-2.63.05-4.33-.29-5.09-1.04-.4-.74-.41-1.49-.04-2.26-.38,0-.59-1.3-.63-3.94-.02-1.5-.04-2.62-.06-3.38-.4-1.12-.79-2.05-1.17-2.8l1.01-6.22c-.01-.75-.22-1.49-.6-2.25,0,.38,0-.56-.05-2.82-.4-.74-.41-1.49-.04-2.26.35-1.13.53-1.89.52-2.27.7-2.64,1.05-4.9,1.01-6.78-.01-.75-.31-1.77-.89-3.09-.6-1.3-.88-2.14-.89-2.52-.38,0-.22-1.31.5-3.96.37,0,.34-1.5-.08-4.51l.48-5.08c-.8-2.24-.82-3.37-.06-3.38-.36,1.13-.57.2-.62-2.81-.04-2.25-.08-4.51-.12-6.77l-.21-11.84c-.02-1.5.14-2.63.51-3.39.37,0-.02-.93-1.17-2.8-.39,0-.21-.75.52-2.27.72-1.51,1.08-2.64,1.07-3.4-.04-2.26-.26-3.94-.66-5.06.38,0,.73-.76,1.09-2.27.29-4.89.45-6.96.46-6.21l-.09-5.07c-1.15-1.48-1.18-2.98-.08-4.51.01.38,0-.56-.05-2.82-.37.39-.2-.18.54-1.7,1.5-.03,1.67-1.16.51-3.39-.82-3.74-.85-5.62-.1-5.64.73-.76,1.08-2.46,1.04-5.09.36-.76.63-1.51.8-2.27.17-.75.25-1.6.24-2.54-.02-.93.34-1.79,1.08-2.56l2.19-3.42c.73-1.14,1.38-1.8,1.94-2.01.56-.2,1.02-.39,1.4-.59.37-.19.82-1.14,1.36-2.84.54-1.7.98-2.74,1.35-3.13.37-.38.73-.86,1.11-1.43.36-.57.62-1.23.8-1.99.18-.75.82-1.71,1.92-2.85,0-.37.55-1.04,1.66-2,1.11-.95,1.94-1.91,2.49-2.86.55-.94,1.18-1.99,1.92-3.14,0,.38.92-.58,2.77-2.87,1.13-.02,1.88-.22,2.25-.6-1.13.02-.58-.74,1.65-2.28.35-1.13.99-2.08,1.93-2.85.92-.77,1.38-1.72,1.36-2.84,1.48-1.15,2.79-1.92,3.91-2.32-.03-1.5.7-2.27,2.21-2.29.37-.38.92-.58,1.69-.59.73-.38,17.02-20.63,17.78-20.27.75.74,12.53,20.97,13.11,21.14.57.18,1.04.92,1.45,2.23.39,1.31,1.74,2.89,4.03,4.72.02,1.13.22,2.25.62,3.37.4,1.12,2.11,2.6,5.16,4.42.78,2.24,1.56,3.73,2.33,4.47.05,2.63.63,4.32,1.78,5.04,1.18,2.61,2.05,4.39,2.63,5.31.59.93.88,1.59.88,1.96,1.15,1.49,1.92,2.42,2.3,2.78.4,1.5.8,2.81,1.2,3.93,0,.38,0,.76.02,1.13.39.75.59,1.31.6,1.68,0,.38.1.76.3,1.12.19.38.58.75,1.15,1.11.57.37,1.04.74,1.43,1.1.42,3.01,1.58,4.86,3.48,5.58.76,1.11,1.16,1.87,1.16,2.24,1.19,3.36,1.79,5.24,1.8,5.61.02,1.51.6,2.25,1.73,2.23.4,1.5.79,2.44,1.18,2.8,1.9,1.47,3.23,2.58,4,3.31,2.28,1.09,3.79,6.84,4.4,9.65.62,2.81,1.29,4.21,2.05,4.19,1.16,2.24,2.11,3.35,2.88,3.33,1.16,1.87,1.75,3.07,1.76,3.63,0,.56.59,1.59,1.75,3.07.42,2.63,1.39,4.3,2.91,5.02,2.68,3.34,4.04,5.2,4.04,5.57-.33,2.64,1.23,5.62,4.67,8.94.77,1.49,1.54,2.61,2.31,3.34.81,3.75,1.41,5.81,1.8,6.17.38.37.86.74,1.43,1.1.58.37.87,1.11.88,2.24.02,1.13.97,2.05,2.88,2.77l1.74,2.79c0,.38.39.94,1.16,1.67.75.75,1.24,1.39,1.44,1.95s.49.93.86,1.11c.38.19,1.16,1.95,2.35,5.32,4.56,3.3,6.29,4.97,5.16,4.99,1.17,2.24,1.77,3.92,1.79,5.04.42,2.63,1.1,4.31,2.05,5.04.95.74,1.73,1.48,2.3,2.22.58.75,1.63,1.86,3.16,3.33,1.52,1.1,2.57,1.84,3.15,2.2.57.37,1.04.92,1.44,1.67.38.75.76,1.31,1.15,1.67.77,1.49,1.17,2.43,1.18,2.8.4,1.5.78,2.24,1.16,2.24,1.54,2.23,1.76,3.55.63,3.94.05,3.01-2.17,4.55-6.69,4.63-1.51.03-2.72.33-3.65.91-.93.58-1.58,1.07-1.94,1.44-3.02.05-4.88.65-5.61,1.79-2.62,1.17-3.71,3.26-3.27,6.26,1.22,5.25,1.82,6.93,1.78,5.04.77,1.49,1.64,2.32,2.58,2.49.94.18,2.56,1,4.84,2.45,4.15.69,6.78.82,7.9.43.02.76,1.16,1.49,3.42,2.2,3.36-1.19,5.13-1.78,5.33-1.78.19,0,.74-.2,1.68-.59.93-.39,1.59-.59,1.96-.6,0-.37,2.05-.41,6.2-.11,1.5-.03,2.82-.05,3.95-.07,3.39.7,5.28.95,5.66.75.37-.19,1.12.08,2.26.81,1.14.74,1.9.91,2.27.52,3-.42,4.12-.64,3.37-.62.75.37,1.89.53,3.38.5.37-.38,1.59-.78,3.65-1.19,2.05-.41,4.22-.82,6.46-1.24,4.53,1.43,6.81,1.95,6.8,1.57,1.12-.39,2.52-.79,4.21-1.2,1.69-.4,3.1-.62,4.22-.64l7.9-.14c6-.11,9.01-.34,9.01-.72,3.74-.81,5.63-.66,5.65.47,2.63-.05,3.57-.06,2.82-.05,2.25-.41,3.56-.63,3.94-.63,5.67,1.41,8.47.98,8.43-1.28,1.88-.03,3.11.33,3.68,1.06.59.75,1.44,1.3,2.57,1.65,1.13.36,2.45.52,3.96.5,2.25-.04,4.58-.45,7.03-1.25,2.43-.79,4-1.85,4.73-3.19.73-1.33,1.66-2,2.79-2.02.74-.38.72-1.33-.05-2.82-.05-3,.29-4.89,1.03-5.66-1.94-3.35-2.91-5.21-2.92-5.59-1.14-.73-1.92-1.38-2.29-1.93-.39-.56-1.34-.82-2.83-.8-1.51.03-2.26-.33-2.28-1.09-3.78-1.06-5.1-1.6-3.97-1.62-.39,0-1.52-.16-3.39-.51-1.52-.34-2.83-.32-3.95.07l-4.5.64c-1.12.02-2.36-.61-3.69-1.91-1.35-1.29-2.29-2.02-2.86-2.21-.58-.17-1.43-.63-2.57-1.37-1.13-.35-2.18-.9-3.13-1.64-.95-.73-2.38-1.46-4.27-2.18,0-.75-1.54-1.47-4.55-2.18-.76-.36-1.42-.72-1.99-1.09-.57-.36-1.62-.91-3.13-1.64-4.17-1.42-6.27-4.02-6.34-7.78-1.15-1.11-1.83-1.94-2.01-2.5-.21-.56-.31-1.12-.32-1.69s-.21-1.03-.59-1.4l-3.45-3.89c-1.16-1.86-2.12-3.35-2.9-4.46-1.17-2.61-1.85-3.63-2.02-3.07-.19.57-1.04-.26-2.58-2.49-2.67-1.83-3.81-2.75-3.43-2.76-.77-1.11-1.35-1.67-1.73-1.66-1.51-.34-1.9-.81-1.15-1.39.74-.58.64-1.14-.31-1.69-.95-.55-1.53-1.1-1.72-1.66-.21-.56-.87-1.39-2.02-2.5-1.14-1.11-1.92-1.75-2.28-1.93-.39-.18-.68-1.2-.9-3.09-.23-1.87-.34-3-.35-3.38l-1.72-1.66c-1.15-1.48-2.02-2.69-2.6-3.62-.59-.92-1.07-1.95-1.47-3.08-.4-1.12-.68-1.86-.88-2.24-.2-.37-.68-1.3-1.46-2.79-.78-1.48-1.17-2.61-1.18-3.36-1.14-.73-1.99-1.09-2.56-1.08-.57,0-.85-.55-.87-1.68-.02-1.13-.23-1.97-.62-2.53-.39-.56-1.43-1.57-3.15-3.05-1.73-1.47-2.8-3.33-3.2-5.58-.42-2.25-.62-3.18-.62-2.81-1.14-.73-1.81-1.18-1.99-1.38-.2-.18-.3-.93-.32-2.25-.03-1.31-.23-1.97-.61-1.96-2.25.04-3.4-1.25-3.44-3.89-.78-1.11-1.45-1.85-2.01-2.22-.58-.36-1.05-.63-1.43-.82-.38-.18-.95-.83-1.73-1.94-.75.01-1.61-.44-2.56-1.37-.96-.92-1.63-1.38-1.99-1.38-.44-3-.29-5.44.44-7.34-1.59-4.48-2.56-5.97-2.9-4.46.35-1.13.15-1.88-.61-2.25.02,1.13-.75.21-2.3-2.78-2.27-.71-3.43-2.38-3.47-5.01-.38,0-.95-.64-1.73-1.94-.78-1.3-1.36-1.95-1.73-1.94-.82-3.74-1.42-5.61-1.79-5.61l-3.41-1.63c-.02-.75-.03-1.31-.03-1.69-.4-.74-.59-1.3-.6-1.68-1.13-.35-1.91-1.09-2.29-2.22-3.43-2.57-5.16-4.79-5.2-6.68.36-.76.55-1.51.53-2.26-.02-1.13-.69-2.33-2.03-3.63-1.35-1.29-2.01-2.31-2.02-3.07-1.16-1.48-2.12-2.78-2.89-3.9-1.51.03-2.47-.89-2.87-2.77-.4-.74-.88-1.76-1.47-3.08-.59-1.3-1.07-1.95-1.44-1.95-.81-2.99-1.21-4.68-1.22-5.05-1.13-.35-2.18-.99-3.14-1.92-.96-.92-1.44-1.75-1.45-2.51-1.14-.73-1.82-1.28-2-1.66-.2-.37-.5-.93-.88-1.68-.39-.74-.86-1.4-1.44-1.95s-1.06-1.11-1.44-1.67c-.39-.56-.77-.83-1.14-.83-1.16-1.86-1.84-2.69-2.01-2.5-.2.2-.33-2.15-.41-7.04-2.28-1.46-3.63-3.13-4.04-5.01-1.91-1.46-2.67-2.21-2.29-2.22-.77-.74-1.34-1.1-1.72-1.1.04,1.89-.36,1.13-1.16-2.24-.39-.36-.6-1.49-.62-3.37,0-.37-.3-.93-.87-1.68-.58-.74-.87-1.3-.87-1.68l-14.33-18.68c1.46-2.28-.51.85.03-.67.54-1.51.67-.53.85-1.48.17-.94,1.37-2.81,2.68-3.4,1.3-.59,1.8-2.17,1.98-2.55.18-.37.72-1.14,1.65-2.28.91-1.14,1.75-1.91,2.5-2.3,1.46-1.9,2.56-3.43,3.3-4.57,2.25-.04,3.36-.99,3.33-2.88.73-.76,1.28-1.62,1.65-2.57.35-.94,1.46-2.18,3.31-3.72l2.21-2.3,3.34-2.31c-.38,0,.92-.58,3.92-1.76.74-.38,1.49-.77,2.23-1.17l1.06-3.97c1.11-.77,1.85-1.63,2.21-2.58.36-.94.71-1.89,1.08-2.84.35-.94.71-1.61,1.09-1.99l1.07-2.84c2.22-1.92,3.61-3.45,4.16-4.58.54-1.14,1.17-2.08,1.93-2.85.73-.76,1.57-1.44,2.5-2.02.92-.58,1.57-1.15,1.94-1.73.36-.57.82-1.14,1.38-1.72.56-.57.91-1.23,1.09-1.99.17-.75.54-1.6,1.08-2.56.55-.94.81-1.79.8-2.55,1.46-1.9,2.57-3.05,3.32-3.44,2.24-.79,3.44-1.47,3.63-2.04.17-.57.54-1.42,1.08-2.56.55-1.14,1.18-1.71,1.94-1.73.69-2.64,1.06-3.4,1.08-2.27.37-.38.91-1.23,1.65-2.57.72-1.33,1.18-2.08,1.37-2.28.19-.19.28-.38.28-.57,0-.19.72-1.04,2.21-2.58,1.47-1.52,2.39-2.48,2.77-2.87.36-.38,1.67-1.34,3.89-2.89-.02-1.13-.03-2.06-.04-2.82,1.47-1.15,2.5-1.92,3.06-2.31.56-.38,1.19-1.24,1.93-2.57.73-1.33,1.28-2,1.66-2,.38,0,.57-.38.55-1.14,1.85-1.91,2.76-3.71,2.73-5.41-.03-1.69.32-3.11,1.05-4.25,1.13-.02,2.06-.04,2.82-.05,1.13-.02,1.78-.4,1.95-1.16.17-.75.82-1.51,1.93-2.29,1.11-.77,1.67-1.34,1.66-1.72,2.2-3.04,2.93-4.56,2.18-4.55.33-2.26.67-3.96,1.04-5.09.35-1.13.71-1.89,1.08-2.27l1.11-1.15c.74-.01,1.5-.11,2.25-.32.74-.2,1.49-.49,2.23-.88,1.84-2.66,3.02-4.93,3.55-6.83.53-1.89,1.36-3.03,2.48-3.43,0-.37.36-.38,1.12-.02,1.13.36,1.71.73,1.72,1.1,1.49-.4,2.41-1.45,2.76-3.15.35-1.7,1.08-2.56,2.21-2.58.37-.38.93-.39,1.7-.03.37.37,2.44.52,6.2.46.02,1.13,3.58.7,10.7-1.31,1.13-.02,2.91.14,5.37.47,2.44.34,4.43.49,5.92.46.02.76,1.34,1.1,3.97,1.06.37-.39.92-.97,1.66-1.76.74-.78,1.86-1.57,3.34-2.37,1.08-2.71,1.63-3.68,1.65-2.91.7-2.32,1.24-4.06,1.6-5.22.7-2.31.68-3.47-.06-3.45h0c-.81-3.06-1.4-4.59-1.78-4.59h0Z"/>
  <path class="cls-1" d="m.65,274.17c.4-.2.79-.56,1.17-.55,10.02.37,19.93-2.43,29.99-1.08,1.68.23,3.49-.12,5.19-.47,3.46-.71,6.88-.99,10.4-.42,3.89.63,7.78.83,11.69-.28,1.64-.46,3.47-.16,5.22-.24,5.89-.28,11.77-.57,17.65-.85,1.53-.07,3.13-.43,4.56-.09,6.51,1.54,13.19,1.28,19.57.39,8.72-1.21,17.42-.59,26.1-1.2,5.87-.42,11.73-.98,17.59-1.51,1.08-.1,2.17-.3,3.2-.63,2.19-.69,3.42-2.6,3-4.5-.52-2.37-1.83-3.72-4.04-3.57-9.36.63-18.74-1.4-28.1.22-1.24.21-2.58-.34-3.88-.35-3.88-.04-7.78-1.26-11.65.34-.95.39-2.17.23-3.25.14-11.33-.93-22.67-.46-34.01-.56-7.84-.07-15.68.33-23.51.25-14.83-.16-29.66-.52-44.48-.82-.64-.01-1.37-.13-1.87-.48-.45-.31-.88-1.03-.86-1.55.02-.56.48-1.46.91-1.57,1.45-.39,2.97-.64,4.47-.7,5.67-.23,11.35-.29,17.02-.57,2.37-.12,4.72-.62,7.08-.96.43-.06.88-.36,1.27-.28,6.29,1.42,12.56-1.43,18.87-.02,1.43.32,3.03-.11,4.54-.22,4.13-.31,8.26-.83,12.39-.91,5.21-.1,10.26-1.49,15.58-1.13,4.93.33,9.95-.98,14.95-1.3,5.66-.35,11.34-.41,17.02-.58,5.24-.15,10.49-.08,15.71-.48,7.17-.54,14.31-1.37,21.45-2.19,2.48-.29,4.61-1.37,5.7-4.46-.75-2.55-2.55-4.23-5.36-4.74-5.33-.97-10.62-2.39-16.13-.86-1.59.44-3.41.2-5.11.07-6.92-.51-13.8.85-20.79.1-5.58-.6-11.33.15-16.98.56-9.38.68-18.73.72-28.1-.14-4.34-.4-8.76-.55-13.09-.13-5.03.49-10.01-.08-15,.05-3.92.11-7.84.42-11.77.44-6.97.04-13.94-.05-20.92-.12-.86,0-1.77-.1-2.54-.45-.46-.21-.81-.94-.96-1.51-.08-.3.25-.9.56-1.11.54-.36,1.18-.65,1.81-.73,1.95-.25,3.92-.61,5.86-.51,7.25.38,14.34-1.07,21.45-1.97,6.75-.86,13.47-.66,20.21-.86,1.74-.05,3.52.19,5.22-.11,8.01-1.42,16.1-1.33,24.16-1.35,7.89-.02,15.67-1.09,23.51-1.53,1.53-.08,3.09-.47,4.57-.25,8.77,1.25,17.37-1.19,26.09-1.12,4.55.03,9.11-.71,13.64-1.25,1.72-.2,3.41-.73,5.09-1.22,1.32-.39,2.33-1.15,2.44-2.76.13-1.88-.83-3.12-2.4-3.55-2.51-.69-5.09-1.45-7.65-1.48-11.79-.14-23.58-.13-35.37,0-14.18.15-28.36.43-42.53.7-8.3.16-16.59.57-24.88.59-8.73.02-17.47-.31-26.2-.47-4.14-.07-8.29,0-12.42-.18-1.14-.05-2.26-.75-3.67-1.26.68-.91.98-1.71,1.45-1.85,2.31-.66,4.64-1.36,7.01-1.64,5.19-.62,10.41-.96,15.61-1.47,2.81-.27,5.61-.64,8.41-.97.43-.05.88-.23,1.3-.18,8.31,1.02,16.38-1.41,24.59-1.93,10.14-.65,20.38-.99,30.4-3.39,4.41-1.05,9.1-.81,13.63-1.37,3.24-.4,6.49-1.82,9.65-1.57,5.56.43,10.77-1.58,16.21-1.61.22,0,.47.05.65-.04,7.38-4.05,15.96-1.53,23.59-4.56,2.08-.82,4.73-.07,7.11-.15,5.45-.17,10.84,0,16.28.79,6.59.95,11.97,3.84,16.24,8.92,1.82,2.17,3.55,4.46,5.21,6.79,2.13,2.98,5.45,5.07,8.32,7.47,2.19,1.84,4.39,3.69,6.74,5.3,4.39,3.01,9.17,5.25,14.5,5.33,6.76.1,13.52-.21,20.28-.43,2.17-.07,4.34-.39,6.51-.62,3.25-.35,6.45-.92,9.76-.25,1.67.34,3.62.4,5.18-.17,2.07-.75,3.76-.64,5.57.45.53.32,1.32.55,1.88.39,4.25-1.15,8.65-.07,12.99-1.21,3.05-.8,6.5-.55,9.68-.09,2.41.35,4.74.76,7.11.17,5.61-1.4,11.31-.87,16.97-.69,3.49.11,6.98-.25,10.39-.16,6.59.17,12.99-1.18,19.5-1.42,3.48-.12,6.95-.64,10.43-.74,9.16-.26,18.33-.47,27.49-.53,3.32-.02,6.57-.34,9.66-1.51,3.18-1.21,6.36-1.44,9.66-1,2.41.32,4.77.37,7.03-.88.73-.4,1.69-.58,2.52-.51,4.81.36,9.43,0,14.2-1.24,3.65-.94,7.77.05,11.69.19.84.03,1.94.52,2.46.13,3.54-2.59,7.74-2.01,11.45-1.84,8.67.41,16.85-1.84,25.18-3.38,1.5-.28,2.99-.73,4.51-.83,11.1-.74,22.06-2.16,32.9-4.97,5.88-1.53,12.04-1.96,17.82-4.15.78-.29,1.73-.04,2.59-.17,2.79-.41,5.62-.72,8.36-1.37,9.97-2.36,19.92-4.86,29.88-7.25,1.47-.35,3.03-.76,4.5-.6,2.69.28,5.21.19,7.61-1.23.55-.32,1.29-.59,1.88-.5,4.56.72,8.93-1.11,13.55-.83,5.34.33,10.77.72,16.18.14,6.48-.69,16.6,3.95,18.57,12.67.19.82.62,1.72,1.22,2.29,2.97,2.84,3.36,6.67,3.96,10.44.56,3.54,1.1,7.08,1.61,10.63.64,4.49.96,8.94-1.32,13.14-.53.97-1,2.06-1.14,3.14-.82,6.22-3.64,11.31-7.43,16.18-3.23,4.16-7.33,6.24-12.05,7.07-5.35.94-10.77,1.71-16.16-.35-1.36-.52-3.03-.12-4.56-.2-6.29-.36-12.66.84-18.89-.92-.21-.06-.46-.11-.65-.03-4.21,1.65-8.07-.3-12.04-1.2-1.06-.24-2.16-.62-3.2-.52-6.65.65-12.91-1.5-19.21-3.02-2.8-.68-5.52-1.16-8.35-1.1-5.49.13-10.89-.28-16.16-2.07-1.42-.48-3.01-.68-4.52-.64-4.4.12-8.72-.32-13-1.32-6.24-1.45-12.6-.9-18.91-1.11-2-.07-3.82-.48-5.73-.98-4.83-1.26-9.75-2.15-14.65-3.13-.84-.17-1.82-.29-2.6-.03-4.35,1.46-8.54.24-12.79-.52-1.47-.26-3.01-.13-4.52-.09-2.18.07-4.39.53-6.52.26-3.07-.39-6.04-.44-9.05.32-.82.21-1.87.35-2.58.01-2.68-1.28-5.03-.55-7.52.62-.86.41-2.31.41-3.09-.08-4.41-2.76-9.36-2.65-13.97-1.97-6.06.89-12.06.3-18.04.22-7.87-.11-15.68-.01-23.47,1.03-7,.94-13.93.28-20.89-.39-1.71-.16-3.46-.25-5.16-.06-5.01.55-9.98.61-15-.1-2.34-.33-4.77-.05-7.15.04-1.3.05-2.63.56-3.89.41-6.97-.87-13.86.23-20.79.5-6.98.27-14.02.53-20.96-.06-9.58-.81-19.09-.99-28.64,0-2.81.29-5.69.2-8.51-.06-4.45-.41-8.61,1.17-12.91,1.75-1.42.19-2.81,1.17-4.06,2.03-3.07,2.12-5.98,4.48-9.09,6.54-1.86,1.24-3.78,2.23-4.28,4.75-.12.61-.56,1.3-1.06,1.65-4.02,2.82-6.39,7.35-10.15,10.37-3.94,3.17-8.14,5.99-12.27,8.89-.7.49-1.61.82-2.45.9-4.96.48-9.83,1.92-14.92,1.11-2.1-.33-4.3.08-6.46.06-4.72-.05-9.4-.01-14.12.69-2.7.4-5.59-.73-8.41-1.05-3.46-.4-7-1.28-10.38-.88-4.19.49-8.17-.18-12.26-.52-5.43-.45-10.91-.74-16.35-.54-6.14.22-12.11-1.12-18.17-1.48-2.38-.14-4.75-.46-7.13-.51-5.01-.11-10.02.06-14.98-1.11-1.66-.39-3.47-.08-5.2-.22-7.17-.59-14.33-1.31-21.5-1.82-7.83-.56-15.68-.89-23.51-1.41-1.72-.11-3.47-.43-5.11-.96-1.86-.6-2.13-2.01-1.12-3.68h0Z"/>
  <path class="cls-1" d="m2275.25,223.08c-1.44-4.33-1.63-4.4-.23-8.05,1.84-4.81,3.02-9.94,7.28-13.59,1.51-1.3,1.82-3.84,3.83-5.08,2.02-1.25,3.77-2.83,6.45-2.78,1.41.02,3.01-.63,4.23-1.43,2.59-1.68,5.4-1.86,8.2-1.43,2.6.4,5.07.54,7.73.32,2.95-.25,6.34.03,8.92,1.32,4.08,2.04,8.48,1.32,12.58,2.65,3.94,1.29,8.13,1.33,12.22,1.83,4.49.55,8.87,1.96,13.33,2.87,1.89.38,3.83.42,5.74.64,1.07.12,2.14.21,3.19.43,4.9,1.01,9.77,2.17,14.69,3.06,2.54.46,5.17.47,7.77.65.64.04,1.42-.32,1.91-.07,5.01,2.52,10.24,1.12,15.39,1,.44,0,.88-.14,1.3-.07,7.12,1.11,14.3,1.48,21.48,1.73,3.03.11,6.05.38,9.07.7,3.89.42,7.75,1.07,11.64,1.42,2.37.22,4.78.21,7.16.07,3.48-.21,6.86-.32,10.37.49,2.41.56,5.17,0,7.7-.48,2.2-.42,4.26-.8,6.37.2.59.27,1.26.52,1.89.5,6.3-.26,12.62-.48,18.91-.93,1.96-.14,3.82-.48,5.76.27,1.18.46,2.56.55,3.84.57,5.89.08,11.78.06,17.66.11,1.52.01,3.15-.14,4.53.33,2.64.88,5.07.67,7.68-.07,2.74-.77,5.52-.72,8.31.36,1.57.6,3.41.6,5.14.62,3.25.04,6.52-.07,9.77-.16,4.54-.12,9.02-.13,13.6-1,4.81-.91,9.97-.08,14.98.11,6.26.23,12.52.62,18.78.84,1.73.06,3.5-.05,5.21-.37,5.63-1.07,11.22-.94,16.86-.05,1.71.27,3.5.41,5.2.18,5.42-.72,10.8-.82,16.19.14,1.48.26,3.12.41,4.55.06,9.54-2.27,19.06.09,28.6-.09,3.79-.07,7.21-1.56,10.79-1.9,3.29-.31,6.52,2.14,10.16,1.65,3.63-.49,7.29-.82,10.95-.96,2.15-.08,4.44-.01,6.47.64,3.47,1.11,6.87.69,10.36.51,4.96-.26,9.95-.11,14.92-.41,4.13-.25,8.23-.81,12.29.45.8.25,1.76.17,2.6.04,3.88-.61,7.81-.34,11.67-.6,7.58-.51,15.24.12,22.77-1.27,1.49-.27,3.05-.31,4.56-.28,6.05.13,12.15.79,18.16.35,5.52-.4,10.8.65,16.17,1.13.85.08,1.75.08,2.6-.04,8.93-1.19,17.84-.82,26.73.37,3.06.41,6.02.66,9.06-.3,1.4-.45,3.02-.33,4.53-.33,7.18,0,14.38-.04,21.56.12,6.31.14,12.62.57,18.93.8,2.16.08,4.46.39,6.5-.15,4.31-1.14,8.58-.88,12.94-.76,6.31.17,12.63.01,18.94.02,2.84,0,5.68.1,8.5.1,2.44,0,4.4,1.08,5.2,3.25.85,2.29.77,4.85-1.24,6.67-1.91,1.74-4.49,2.9-6.02,4.89-2.03,2.65-4.7,3.62-7.6,4.54-1.45.46-3.05.87-4.2,1.78-3.02,2.41-6.33,3.5-10.18,3.82-2.29.19-4.76,1.14-6.69,2.43-7.02,4.71-15.47,5.61-22.92,9.1-5.78.16-10.77,3.64-16.2,4.42-7.77,1.12-15.08,4.39-23.01,4.47-.85,0-1.82.09-2.54.48-4.72,2.53-10.11,2.61-15.1,4.13-1.64.5-3.44.67-5.17.67-2.87,0-5.58.47-8.31,1.45-1.99.72-4.26,1.1-6.38,1.01-5.75-.23-11.26.98-16.8,2.17-1.27.27-2.56.7-3.84.68-6.56-.09-13.06.67-19.59,1.05-13.02.76-26.08,1.42-39.11,1.35-7.39-.04-14.76.6-22.16.3-3.45-.14-6.97.81-10.41.63-6.63-.34-13.29,1.9-19.88-.26-.81-.26-1.87-.51-2.57-.21-4.85,2.07-9.93.35-14.86,1.01-4.29.57-8.63-.07-13,.74-3.29.61-6.94.06-10.32-.55-6.11-1.11-12.16.23-18.26-.06-3.04-.14-6.09.1-9.14.25-3.01.14-5.57-.73-7.64-2.97-1.91-2.06-3.84-4.12-5.84-6.08-2.78-2.72-5.55-5.47-8.52-7.97-1.81-1.53-3.96-2.56-4.91-5.02-.32-.8-1.65-1.21-2.51-1.79-.87-.59-2.01-.98-2.57-1.79-1.44-2.08-3.4-2.78-5.68-2.35-5.89,1.11-11.8.1-17.54-.54-8.97-.99-17.83-.62-26.73-.11-9.79.55-19.56,1.45-29.35,1.98-11.3.6-22.62.93-33.93,1.44-4.11.19-8.29,1.21-12.27.67-5.5-.74-10.84-.04-16.23.25-.87.05-1.82-.16-2.6.13-4.43,1.6-9.03,1.3-13.59,1.48-5.68.23-11.26,1-16.84,2.1-3.38.67-6.96,1.13-10.36.8-5.32-.51-10.42.15-15.49,1.46-3.85.99-7.71,1.19-11.67,1.05-3.02-.11-6.08.34-9.08.82-8.38,1.36-16.75,2.87-25.11,4.33-4.93.86-9.85,1.76-14.78,2.59-2.35.39-4.74.56-7.08,1-2.33.44-4.63,1.04-6.93,1.65-2.51.67-4.97,1.95-7.5,2.05-8.9.34-17.82.38-26.73.36-3.46,0-6.99-.2-9.67-3.03-.53-.55-1.6-.6-2.42-.86-3.02-.92-5.49-2.6-7.33-5.17-.26-.35-.49-.78-.82-1.01-4.33-2.95-5.34-7.66-6.53-12.27-.5-1.89-.79-3.85-1.45-5.69-.55-1.51-.76-2.81-.09-4.36.4-.92.22-2.13.17-3.2-.18-3.88-.2-3.88,1.95-7.09h0Z"/>
  <path class="cls-1" d="m953.09,5.3c.38,0-1.34,0-5.16,0h-10.32c-4.59-1.52-6.69-2.05-6.31-1.58.38.48-.96.43-4.01-.14-4.97.39-8.6.96-10.89,1.72-2.29-.38-4.01-.38-5.16,0,0,.39-2.29.77-6.88,1.15-.39,0-.96.2-1.72.57-3.06,0-4.01.2-2.87.57-6.12-.76-9.94-.19-11.47,1.72-.39.39-.57.77-.57,1.15v1.72c-.77.77-1.34,1.15-1.72,1.15s-.86-.19-1.43-.57c-.57-.38-1.06-.57-1.43-.57-4.21,1.15-5.55,1.92-4.01,2.29,1.52.39-.38.57-5.73.57-2.68.77-4.01,1.34-4.01,1.72-1.92.77-3.64,1.34-5.16,1.72-4.59,1.15-6.12,1.72-4.59,1.72-.77,1.53-1.72,1.92-2.87,1.15.76.39-.2.57-2.87.57-1.92,1.53-3.44,2.49-4.59,2.87.38,0-.96.57-4.01,1.72-.77,1.15-2.68,1.72-5.73,1.72,0,1.15-1.34,1.92-4.01,2.29-2.68.39-4.01,1.15-4.01,2.29-1.53,0-2.87.77-4.01,2.29-3.44,2.68-6.31,4.59-8.6,5.73-.77.39-1.34.57-1.72.57l-1.72,1.72h-.57c-.77,0-1.53.2-2.29.57h-2.29c-3.44,2.29-5.16,3.64-5.16,4.01-2.29,1.53-3.73,2.58-4.3,3.15-.57.57-.96,1.06-1.15,1.43-.2.39-1.43.57-3.73.57-.38.77-1.15,1.63-2.29,2.58-1.15.96-2.01,1.82-2.58,2.58-.57.77-1.25,1.34-2.01,1.72,0,1.53-1.53,2.68-4.59,3.44-1.15,1.15-1.92,2.01-2.29,2.58-.38.57-.77,1.25-1.15,2.01-1.53,0-2.68.57-3.44,1.72-1.53,2.29-2.49,4.21-2.87,5.73-2.29,1.53-4.21,2.29-5.73,2.29-1.15,1.15-2.1,2.29-2.87,3.44-2.29,1.15-3.64,2.01-4.01,2.58-.38.57-.77,1.06-1.15,1.43-1.53,0-2.49,1.15-2.87,3.44-.38,2.29-.86,3.44-1.43,3.44s-1.43.29-2.58.86c-1.15.57-1.72,2.2-1.72,4.87-1.53,1.53-2.49,2.29-2.87,2.29l-2.29,2.87c0,1.15-.38,1.92-1.15,2.29-.39,1.53-1.15,2.49-2.29,2.87-.77,1.53-1.34,2.68-1.72,3.44-.38.77-1.06,1.63-2.01,2.58-.96.96-1.63,1.63-2.01,2.01.38-1.15.57.57.57,5.16-.77.77-1.34,1.25-1.72,1.43-.39.2-.96,1.06-1.72,2.58-.77,1.53-1.72,2.29-2.87,2.29-.38,1.53-.77,2.49-1.15,2.87v.57c.38.38.57.77.57,1.15.76,0,.19.77-1.72,2.29,0,1.15-.77,2.11-2.29,2.87-1.53.77-2.49,1.43-2.87,2.01-.39.57-.57,2.39-.57,5.45-1.53.77-2.29,1.72-2.29,2.87-1.92,2.29-2.49,3.44-1.72,3.44-1.15,1.15-1.92,1.92-2.29,2.29v4.01c-.39,3.44-.57,4.21-.57,2.29.38,0,0,1.53-1.15,4.59-1.15.39-1.53,1.72-1.15,4.01v2.87l-.57,1.15c-1.15,3.06-1.53,5.55-1.15,7.45-1.15,4.21-1.72,6.5-1.72,6.88-.38,2.29-.77,4.59-1.15,6.88-1.15,5.36-1.92,7.65-2.29,6.88.76,3.06,1.15,4.78,1.15,5.16,0,2.68-.38,4.01-1.15,4.01v5.16c0,.39.19.96.57,1.72-.38,0-.48,2.29-.29,6.88.19,4.59-.1,7.08-.86,7.45l-.57,2.87c-.38,1.15-.77,1.92-1.15,2.29.38,1.53.57,2.49.57,2.87-.77.38-1.15,2.49-1.15,6.31v1.72c0,3.83,0,5.16,0,4.01-1.53.77-2.29,1.92-2.29,3.44-.39-.38-.2.2.57,1.72.76,1.53,1.24,2.49,1.43,2.87.19.39.47,2.49.86,6.31.38,3.44.38,5.16,0,5.16l-1.15,4.01c0,.77.38,1.53,1.15,2.29l.57,3.44c.38,1.15.76,1.72,1.15,1.72l.57,4.01c-1.15,0-1.15,1.72,0,5.16,1.15,3.44,1.91,5.16,2.29,5.16s.76.77,1.15,2.29c.38,1.92.19,2.87-.57,2.87,0,.39.57.77,1.72,1.15,0,.77.09,1.43.29,2.01.19.57.47,1.43.86,2.58v2.29c.76,1.92.95,3.25.57,4.01.76,1.92,1.52,3.06,2.29,3.44-1.92,1.53-2.11,2.68-.57,3.44,0,.77.57,1.25,1.72,1.43,1.15.2,1.52.86,1.15,2.01v3.44c.38.39.66,1.53.86,3.44.19,1.92.66,3.64,1.43,5.16.76,1.53,1.33,2.68,1.72,3.44,0,1.92.09,3.73.29,5.45.19,1.72,1.62,2.97,4.3,3.73.76,1.53,1.15,2.49,1.15,2.87-.39,0-.57.77-.57,2.29.38,1.15.76,2.29,1.15,3.44,1.91,2.29,3.05,4.11,3.44,5.45.38,1.34.66,2.2.86,2.58.19.38.48.86.86,1.43.38.57,1.15,2.2,2.29,4.87,1.52,3.83,2.29,5.16,2.29,4.01,1.15,1.15,1.72,2.68,1.72,4.59.76.38,1.33.86,1.72,1.43.38.57.95.96,1.72,1.15.76.2,1.15.57,1.15,1.15s.57,1.15,1.72,1.72c1.15.57,2.1,1.34,2.87,2.29.76.96,1.24,1.72,1.43,2.29.19.57.86,1.25,2.01,2.01,1.15.77,1.72,1.25,1.72,1.43,0,.2.76,1.06,2.29,2.58,0,.38,1.15,1.34,3.44,2.87.38,0,1.15.38,2.29,1.15,0,.38.57.77,1.72,1.15,1.15,2.29,2.01,3.73,2.58,4.3.57.57,1.24,1.15,2.01,1.72.76.57,1.43,1.15,2.01,1.72.57.57,1.24,1.06,2.01,1.43,2.29,1.15,4.01,2.11,5.16,2.87,1.91,2.29,2.96,3.44,3.15,3.44s.76.2,1.72.57c.95.39,2.01.77,3.15,1.15,1.91,1.53,3.06,2.68,3.44,3.44.38.77.95,1.53,1.72,2.29,2.67.38,4.01,1.34,4.01,2.87,2.67,0,4.2,1.43,4.59,4.3.38,2.87.57,3.54.57,2.01,1.91.38,3.06.77,3.44,1.15,3.06,1.92,5.73,3.25,8.03,4.01.76.38,1.15.77,1.15,1.15,2.29,0,3.63.38,4.01,1.15,3.44.77,5.35,1.25,5.73,1.43.38.2.95.57,1.72,1.15.76.57,1.15,1.25,1.15,2.01h2.87c0,.38.95.96,2.87,1.72,3.44,0,4.78,0,4.01,0,.38,1.53,1.43,2.58,3.15,3.15,1.72.57,3.24.86,4.59.86s2.38.1,3.15.29c.76.2,1.43.67,2.01,1.43.57.77,1.05,1.15,1.43,1.15h6.31c0,.38,1.72.77,5.16,1.15.76.77,1.43,1.43,2.01,2.01.57.57,1.43.86,2.58.86,6.11,0,9.17.38,9.17,1.15,6.11.77,9.55.57,10.32-.57,1.52.51,2.48,1.02,2.87,1.53,1.91.51,3.24.76,4.01.76-1.15,0,.57,0,5.16,0,0,.77.95.77,2.87,0,3.82,0,5.35,0,4.59,0h7.45c.38.77.76,1.15,1.15,1.15,1.15-.38,2.19-.86,3.15-1.43.95-.57,1.81-.47,2.58.29h7.45l1.72.76,5.16.38h1.72c4.96,0,6.31,0,4.01,0,1.91,0,3.53-.09,4.87-.29,1.33-.19,2.19-.48,2.58-.86.76,0,1.72.38,2.87,1.15h2.29-.86c-.2,0-.1,0,.29,0,1.91,0,3.82-.22,5.73-.69.38,0,.95-.04,1.72-.11.76-.07,2.29-.19,4.59-.35h5.16c.38-.46.94-.69,1.72-.69,3.06-3.21,4.58-3.89,4.58-2.06,0-.46,1.34-1.37,4.02-2.75,1.14-.46,2.09-.91,2.87-1.38h4.01c1.15,0,1.72-.76,1.72-2.29,2.3-1.91,3.63-3.05,4.02-3.44.38-.38,1.05-1.05,2-2.01.95-.95,2-1.24,3.16-.86,0,.38.86.29,2.58-.29,1.72-.57,2.87-.95,3.44-1.15.58-.19.85-.66.85-1.43,2.68-.76,4.21-1.34,4.59-1.72,2.67-.76,4.67-1.52,6.02-2.29,1.33-.76,2.38-1.52,3.15-2.29.76-.76,1.24-1.33,1.44-1.72.19-.38,1.23-1.33,3.16-2.87.75-1.15,1.72-2.1,2.87-2.87,1.14-.76,1.72-1.52,1.72-2.29,2.29-.76,4.01-1.33,5.16-1.72,2.67-1.91,4.3-3.06,4.87-3.44.58-.38,1.53-.86,2.87-1.43,1.34-.57,2.09-1.15,2.29-1.72.19-.57.48-1.05.86-1.43,0-.38,1.33-.38,4.01,0,.76,0,1.34-.76,1.73-2.29.38,0,.85-1.05,1.43-3.15.58-2.1,1.53-3.44,2.87-4.01,1.34-.57,2.09-1.05,2.29-1.43.19-.38.48-.57.86-.57l-1.15,1.15c1.15-1.52,2.39-2.96,3.73-4.3,1.34-1.33,2-2.38,2-3.15,0,.77.19,0,.58-2.29l1.72-1.15c1.91,0,2.87-.57,2.87-1.72,1.91-1.91,2.96-2.96,3.16-3.15.19-.19.66-.66,1.44-1.43.75-.76,1.33-1.34,1.72-1.72.38-2.67.76-4.3,1.14-4.87.38-.57.86-1.05,1.44-1.43.58-.38.86-2.48.86-6.31.38-2.29.19-3.44-.58-3.44l.58-2.29c0-1.15-.39-3.24-1.15-6.31-1.53-.76-2.68-1.33-3.44-1.72-.76-.38-1.53-1.15-2.29-2.29-3.07-1.15-4.58-1.33-4.58-.57-3.07.39-4.97.77-5.74,1.15-1.91,1.53-2.68,2.29-2.29,2.29-1.15,1.53-1.92,2.29-2.29,2.29-.39,1.15-.67,2.2-.86,3.15-.2.96-.86,1.92-2,2.87-1.15.96-1.72,1.63-1.72,2.01-1.15,1.15-2.11,1.72-2.87,1.72-2.68,2.29-4.5,4.11-5.45,5.45-.96,1.34-1.54,2.2-1.73,2.58-.2.39-.48.96-.85,1.72-1.54.38-2.58,1.15-3.16,2.29-.58,1.15-1.25,1.72-2,1.72-1.93,2.29-2.87,3.25-2.87,2.87-1.54,1.15-2.68,2.11-3.44,2.87-2.29,1.15-3.64,2.11-4.02,2.87-.38.77-1.14,1.53-2.29,2.29-1.14.77-2.39,1.34-3.72,1.72-1.35.38-2.39,1.34-3.16,2.87-2.29.38-3.44,1.53-3.44,3.44-.39,0-.77.29-1.14.86-.39.57-.86.96-1.44,1.15-.58.2-1.34.57-2.29,1.15-.96.57-2.2,1.06-3.73,1.43-1.53.38-2.78.77-3.72,1.15-.96.38-1.64.77-2.01,1.15-2.67,1.92-5.16,3.06-7.45,3.44-.39.77-.95,1.15-1.72,1.15-1.91.77-3.07,1.06-3.44.86-.39-.19-.95-.09-1.72.29-.77.38-1.35.57-1.72.57-.77,1.15-2.68,1.72-5.74,1.72-.39.38-.96.57-1.73.57-1.92.77-3.06,1.34-3.43,1.72-1.54.38-2.68.77-3.44,1.15-2.68.39-5.55,1.15-8.6,2.29-.39.38-.86.77-1.43,1.15-.57.39-1.15.57-1.72.57s-1.25.2-2.01.57c-1.92.77-3.15,1.34-3.73,1.72-.57.38-2.58.67-6.02.86-3.44.2-5.16.48-5.16.86-1.53.39-2.68.39-3.44,0,.76,0,0-.19-2.29-.57-.39-.76-2.68-1.15-6.88-1.15-1.53.77-3.35.38-5.45-1.15-2.11-1.52-3.73-2.1-4.87-1.72h-4.01c0-.38-.77-.38-2.29,0h-6.31c0,.39-1.53-.57-4.59-2.87-1.53-.76-2.87-1.33-4.01-1.72h-1.15c-.38-.38-.77-.57-1.15-.57l-1.15-.57c-1.92-1.91-3.54-3.24-4.87-4.01-1.34-.76-2.29-1.15-2.87-1.15s-1.34-.29-2.29-.86c-.96-.57-2.2-1.43-3.73-2.58,1.15,0,.38-.19-2.29-.57-.39,0-.77-.19-1.15-.57-.39-.38-.67-.76-.86-1.15-.2-.38-.67-.86-1.43-1.43-.77-.57-1.92-.86-3.44-.86-2.68-1.52-4.87-2.67-6.59-3.44-1.72-.76-3.35-1.81-4.87-3.15-1.53-1.33-2.58-2.01-3.15-2.01s-2.01-.48-4.3-1.43c-2.29-.95-3.64-1.62-4.01-2.01-2.29-.38-3.44-1.91-3.44-4.59-.77-1.15-1.53-2.1-2.29-2.87-2.29-1.52-3.44-3.24-3.44-5.16-.39,0-1.06-.76-2.01-2.29-.96-1.52-1.63-2.38-2.01-2.58-.39-.19-.77-.76-1.15-1.72-.38-.95-.57-1.62-.57-2.01-1.15-.76-2.11-1.72-2.87-2.87-.38,0-.77-.38-1.15-1.15-.39-.76-.77-1.15-1.15-1.15-1.15-1.52-1.92-2.67-2.29-3.44-.77-2.67-1.25-4.3-1.43-4.87-.2-.57-1.15-1.33-2.87-2.29-1.72-.95-2.96-1.43-3.73-1.43-1.53-1.91-2.68-3.06-3.44-3.44-.77-.38-1.34-1.05-1.72-2.01-.38-.95-.57-1.62-.57-2.01,0,.77,0,.57,0-.57-.38,0-1.15-1.15-2.29-3.44,0-.38-.2-.76-.57-1.15v-4.01c.38-1.15-.57-2.87-2.87-5.16-.38-.38-.38-1.15,0-2.29.38-1.15.38-1.72,0-1.72-.38-1.91-.57-4.2-.57-6.88-.38,0-.2-1.52.57-4.59,0-3.06-.29-4.87-.86-5.45-.57-.57-1.06-1.05-1.43-1.43-1.53-.76-2.11-2.67-1.72-5.73l-.57-.57c.38-.76.66-1.24.86-1.43.19-.19.29-.66.29-1.43,0-1.15-.39-2.1-1.15-2.87v-1.15c-.38-.76-.77-1.33-1.15-1.72,0-2.29.38-4.39,1.15-6.31.38-.38.38-.95,0-1.72-.77-1.15-1.15-1.81-1.15-2.01s-.57-1.62-1.72-4.3l-1.72-5.73c-.77-.38-1.15-1.52-1.15-3.44,0-.76.38-1.34,1.15-1.72.76-.38.95-.76.57-1.15-.38-2.67-.57-4.39-.57-5.16v-5.16c-.38,0-.38-1.33,0-4.01-.38-1.52-.77-2.48-1.15-2.87-.39-.38-.57-1.52-.57-3.44.38-1.91.38-2.87,0-2.87v-2.87c.38.77.76,0,1.15-2.29-.77-1.15-1.53-1.91-2.29-2.29v-10.89c-.38-.76-.67-1.24-.86-1.43-.2-.19-.29-1.62-.29-4.3s.19-4.01.57-4.01v-2.87c.38,1.15,0-.57-1.15-5.16.38-.76.47-1.34.29-1.72-.2-.38-.29-.95-.29-1.72v-1.72c.38-1.15.76-2.29,1.15-3.44,1.52.38,2.48.38,2.87,0,0-.76-.2-1.81-.57-3.15-.39-1.34-.77-2.19-1.15-2.58-.38-.38-.77-1.52-1.15-3.44,0-1.91.48-3.06,1.43-3.44.95-.38,1.52-1.33,1.72-2.87.19-1.52.66-3.53,1.43-6.02.76-2.48,1.15-4.68,1.15-6.59.38-1.91.19-3.06-.57-3.44-.38-.38.38-1.52,2.29-3.44,0-1.52.19-2.67.57-3.44v-8.03c0-4.2.19-5.73.57-4.59-1.15,0-1.53-1.52-1.15-4.59.76-1.15,1.43-1.91,2.01-2.29.57-.38.86-2.1.86-5.16-.39,0,.19-2.1,1.72-6.31.38,0,.95-.95,1.72-2.87,1.15-.76,2.1-2.29,2.87-4.59-.77,0-.38-1.52,1.15-4.59.76,0,1.43-.09,2.01-.29.57-.19,1.24-2.38,2.01-6.59,0-3.06.29-4.49.86-4.3.57.2,1.15-.19,1.72-1.15.57-.95,1.24-2.1,2.01-3.44.76-1.33,1.15-2.77,1.15-4.3.38-.38.57-.95.57-1.72,1.52-.76,2.67-1.15,3.44-1.15,0-.76-.2-1.43-.57-2.01-.39-.57-.57-1.05-.57-1.43,1.15-1.15,1.72-1.34,1.72-.57,3.44-1.15,4.01-1.72,1.72-1.72,0-.38.29-.86.86-1.43.57-.57.86-1.52.86-2.87s.95-2.38,2.87-3.15c0-1.15.29-2.38.86-3.73.57-1.33,1.15-2.1,1.72-2.29.57-.19,1.24-.38,2.01-.57.76-.19,1.72-1.43,2.87-3.73,1.15-.38,1.91-.66,2.29-.86.38-.19.66-.47.86-.86.19-.38.86-.95,2.01-1.72,1.15-.76,1.72-1.72,1.72-2.87h1.72c.76-.38,1.34-.57,1.72-.57,3.44-1.52,6.11-2.1,8.03-1.72.38-.76.95-1.52,1.72-2.29.76-.76,1.72-1.62,2.87-2.58,1.15-.95,2.01-1.72,2.58-2.29.57-.57,1.05-1.05,1.43-1.43,2.67-2.67,4.96-4.39,6.88-5.16.38-.38.95-.76,1.72-1.15.76-.38,2.01-.95,3.73-1.72,1.72-.76,3.15-1.52,4.3-2.29,1.15-.76,2.29-1.72,3.44-2.87,3.82-.76,4.78-1.15,2.87-1.15,0-.38,1.05-.76,3.15-1.15,2.1-.38,3.44-.66,4.01-.86.57-.19,1.05-.47,1.43-.86h1.15c1.91-.38,3.82-.57,5.73-.57.38-.38,1.72-.95,4.01-1.72,0-.38,1.15-.57,3.44-.57s3.53-.47,3.73-1.43c.19-.95.95-1.33,2.29-1.15,1.33.2,2.19.1,2.58-.29,1.15,0,2.67.2,4.59.57h4.59c-1.53.39,1.33,0,8.6-1.15,4.59-.76,6.88-.95,6.88-.57,1.52,0,2.87-.09,4.01-.29,1.15-.19,1.91-.09,2.29.29,1.91-.38,3.63-.76,5.16-1.15,1.52.39,2.48.57,2.87.57s1.34.39,2.87,1.15c0,.39,1.15.96,3.44,1.72h1.15c.76-.38,1.33-.57,1.72-.57,2.29-.38,4.02-.57,5.16-.57,2.67.39,4.68.57,6.02.57s2.67.39,4.02,1.15c1.33.77,2.38,1.15,3.15,1.15-.38.39.19.39,1.73,0l2.29,1.15c1.52.77,2.87.57,4.01-.57,2.3.77,3.73,1.15,4.31,1.15s1.23.57,2,1.72c2.29,0,3.44.29,3.44.86s.58.86,1.72.86h1.15c1.14,0,2,.1,2.58.29.58.2,1.43.48,2.58.86l2.87,1.15c0,.39.57.57,1.72.57,3.06.39,4.58.96,4.58,1.72h4.02c.38.39.76.77,1.14,1.15h2.87c.38.39.95,1.34,1.73,2.87.75,1.53,2.09,2.39,4.01,2.58,1.9.2,3.16,1.06,3.73,2.58.58,1.53,1.04,3.44,1.43,5.73.38,2.29.95,4.21,1.73,5.73v3.44c.38.77.85,1.34,1.43,1.72.58.39.95.67,1.15.86.19.2.38.67.57,1.43.19.77.29,3.25.29,7.45.76,1.92,1.34,3.15,1.73,3.73.38.57.75,1.06,1.14,1.43,0,.39-.2,1.34-.58,2.87v4.01c0,.77-.19,1.72-.57,2.87-.39,0-.49.67-.29,2.01.19,1.34.29,2.78.29,4.3-.39,1.53-.58,2.68-.58,3.44.76,0,.95,1.34.58,4.01-.39,2.29-.39,3.44,0,3.44,1.52,1.92,2.87,3.25,4.01,4.01,0,.77.09,1.53.29,2.29.19.77,1.91,1.06,5.16.86,3.24-.19,5.82-.09,7.74.29,1.15.38,3.06-.57,5.74-2.87,1.15-1.52,1.81-2.58,2-3.15.19-.57.66-1.05,1.44-1.43,1.91-5.73,2.29-8.98,1.14-9.75-.38-.76-.57-1.33-.57-1.72l1.14-1.15c2.29,0,3.44-.76,3.44-2.29,1.52-3.44,2.87-6.5,4.01-9.17,0-.38-.2-1.72-.57-4.01,0-1.52.19-2.48.57-2.87.38-.38.58-.76.58-1.15,0-2.29.19-3.82.58-4.59.38-.76,1.14-1.81,2.29-3.15,1.15-1.34,1.91-2.38,2.29-3.15.76-2.29,1.15-4.1,1.15-5.45s.19-2.67.58-4.01c.37-1.33.75-2.19,1.14-2.58.38-.38.58-2.48.58-6.31,1.14-2.67,1.91-4.2,2.29-4.59.76-3.44,1.15-5.35,1.15-5.73,0-1.91.38-3.24,1.14-4.01,1.92-4.59,2.67-6.88,2.29-6.88-.38-1.91-1.34-3.44-2.87-4.59,0-1.52-1.14-3.06-3.43-4.59-.39,0-.77-.19-1.15-.57-1.53-.38-2.49-.76-2.87-1.15-.39-.38-.85-.76-1.43-1.15-.58-.38-1.91-.86-4.02-1.43-2.1-.57-3.82-1.24-5.16-2.01-1.34-.76-2.58-1.33-3.72-1.72-3.83,0-5.74-.19-5.74-.57h-4.02c0-.38-.39-.76-1.14-1.15-1.54,0-3.25.2-5.16.57-.39,0-1.06-.29-2.01-.86-.95-.57-1.63-.95-2-1.15-.39-.19-1.72-.29-4.01-.29-2.68.39-4.22.39-4.59,0-2.68.39-5.26.67-7.74.86-2.49.2-4.3.67-5.45,1.43-1.92.39-3.07.31-3.43-.21-.39-.53-.86-.88-1.44-1.05-.58-.16-1.53-.33-2.87-.5-1.34-.17-4.11-.59-8.32-1.27-.76-1-2.1-1.68-4.01-2.02-1.91-.34-4.22-.84-6.89-1.52l-10.89-1.01c-2.29,0-3.72-.16-4.3-.5-.58-.34-1.06-.51-1.43-.51h-2.3c-2.29-.38-3.43-.38-3.43,0,1.52,0,.75,0-2.29,0,1.52,0,.94-.76-1.73-2.29-.76,0-1.63.2-2.58.57-.95.39-1.53.67-1.72.86-.2.2-1.82.29-4.87.29-.39.39-1.15.57-2.29.57-2.3,0-3.26,0-2.87,0-1.92.39-2.87-.07-2.87-1.38h0l-5.16-.91h0Zm407.94,18.2c-.58-.56-1.15-1.01-1.72-1.39-.58-.37-1.35-.65-2.29-.83-.96-.19-2.01-.84-3.16-1.95-2.29-1.11-4.22-1.67-5.74-1.67-3.44-1.49-5.93-2.6-7.45-3.34,0-.73-2.68-1.11-8.03-1.11,0-1.11-2.29-1.68-6.89-1.68-1.14-.73-2.1-1.11-2.87-1.11-3.43-1.12-5.16-1.49-5.16-1.11h-10.32c-1.14-.38-1.72-.38-1.72,0,0-.89-1.15-1.33-3.44-1.33-.77-.9-1.53-1.78-2.29-2.68-.77,0-1.53.39-2.29,1.15-3.44,1.15-5.16.77-5.16-1.15h-2.29c-1.15-.38-2.11-.76-2.87-1.15-.77-.38-5.36-.57-13.76-.57-1.15,0-2.58.24-4.31.72-1.72.48-2.87.84-3.43,1.08-.58.24-1.83.72-3.73,1.43-1.92.72-3.44,1.56-4.58,2.51h-12.61c-.77.39-1.54.57-2.3.57s-1.34.1-1.72.29c-.39.2-.86.67-1.43,1.43-.58.77-1.73,1.25-3.44,1.43-1.72.2-2.78.48-3.16.86-2.68,0-4.4.57-5.16,1.72-1.92,1.53-3.83,2.68-5.74,3.44-.39,0-1.05.29-2,.86-.96.57-1.54.77-1.72.57-.2-.19-1.25.57-3.16,2.29-1.92,1.72-4.22,2.58-6.89,2.58-1.92,1.15-3.53,2.01-4.87,2.58-1.34.57-2.49.96-3.44,1.15-.95.2-1.72.48-2.29.86-.58.39-1.34.96-2.29,1.72-.95.77-1.34.96-1.14.57.19-.38-.49-.09-2.01.86-1.53.96-2.68,1.72-3.43,2.29-.77.57-2.68,2.2-5.74,4.87-2.29,1.15-3.44,1.92-3.44,2.29-1.91,0-3.44.96-4.58,2.87,2.29,0,1.33.57-2.87,1.72,0,.39-1.15,1.63-3.44,3.73-2.29,2.11-3.63,3.54-4.01,4.3-.39.77-1.35,2.29-2.87,4.59-.77,0-1.15.39-1.15,1.15-1.92,1.53-3.35,2.97-4.3,4.3-.96,1.34-1.83,2.39-2.58,3.15-.77.77-1.25,1.43-1.44,2.01-.2.57-.67,1.53-1.43,2.87-.77,1.34-1.44,2.58-2,3.73-.58,1.15-1.06,2.29-1.44,3.44-1.15,3.83-1.92,5.93-2.29,6.31-.39.39-1.06,1.06-2,2.01-.96.96-1.44,1.82-1.44,2.58-1.14,3.44-2.2,5.83-3.16,7.17-.95,1.34-1.53,2.29-1.72,2.87-.2.57-.67,1.63-1.43,3.15.37-.76.19.96-.58,5.16-.39,0-1.15,1.92-2.29,5.73-.77,1.15-1.54,2.11-2.3,2.87v5.16c0,.38-.19.96-.57,1.72-.39.77-.58,1.34-.58,1.72-1.15,1.15-1.92,2.29-2.29,3.44,0,1.92.38,2.87,1.14,2.87-.38-1.52-1.14-.19-2.29,4.01v3.44c-.39,1.53-.76,2.49-1.14,2.87-.39.38-.86.96-1.44,1.72-.58.77-.86,1.34-.86,1.72v3.44l-.57,2.87c.38,0,.38.77,0,2.29-.39,1.53-.77,2.29-1.15,2.29-1.14,3.06-1.43,4.97-.86,5.73.58.77.29,2.39-.85,4.87-1.15,2.49-1.73,3.92-1.73,4.3-1.53,0-2.29,4.21-2.29,12.61-.76.39-1.14,2.11-1.14,5.16v2.29c0,2.29-.2,4.21-.58,5.73-.39,1.53-.86,3.06-1.44,4.59-.57,1.53-.66,2.68-.28,3.44,0,2.68-.29,4.87-.86,6.59-.58,1.72-.86,2.96-.86,3.73.38,2.29.38,3.83,0,4.59,0,.38-.2.77-.58,1.15v1.15c.76,1.92,1.15,3.64,1.15,5.16v6.31l.58,1.15c-.39,1.92-.39,3.25,0,4.01.38,0,.58.77.58,2.29-.39,3.44,0,6.31,1.14,8.6v6.88c-.39,2.68-.39,4.4,0,5.16.38,1.15.76,1.92,1.15,2.29,0,1.92.38,3.06,1.14,3.44,0,1.15-.2,2.11-.58,2.87.76,6.88.76,10.32,0,10.32,0,1.53.48,2.68,1.44,3.44.95.77,1.62,1.92,2,3.44v5.16c.76.77,1.15,1.34,1.15,1.72v5.73c1.14,0,1.72.77,1.72,2.29.76,0,.95,1.92.58,5.73,1.52,1.15,2.29,2.68,2.29,4.59.38,0,.58,3.06.58,9.17-.39,0,.19.96,1.72,2.87v3.44c.38.39,1.05.77,2,1.15.95.39,1.44,2.87,1.44,7.45v4.01c.76,1.92,1.43,3.54,2,4.87.58,1.34,1.05,2.2,1.44,2.58,1.52,1.53,2.58,3.06,3.15,4.59.58,1.53.66,3.06.29,4.59,1.15.77,1.92,1.72,2.29,2.87l.58,4.01c1.15,1.53,1.73,1.92,1.73,1.15,1.14.77,1.91,2.49,2.29,5.16-.77,0,.19,1.34,2.87,4.01.75.38,1.43,1.15,2,2.29.58,1.15.95,2.11,1.15,2.87.18.77.75,1.82,1.72,3.15.95,1.34,1.52,2.2,1.72,2.58.19.38.29.77.29,1.15s1.15,1.72,3.44,4.01c.38.77,1.23,1.63,2.58,2.58,1.33.96,2,1.82,2,2.58,1.53,1.92,2.77,3.44,3.73,4.59.94,1.15,1.72,2.11,2.29,2.87.58.77,1.14,1.25,1.72,1.43.58.2,1.24,1.06,2,2.58,1.92,0,3.44,1.53,4.59,4.59,0,.38.66.96,2,1.72,1.34.77,2.09,1.34,2.29,1.72.19.39.76,1.34,1.72,2.87.95,1.53,1.82,2.29,2.59,2.29,1.52,1.53,3.05,2.87,4.58,4.01.38,0,1.33.96,2.87,2.87,1.52,0,2.29.57,2.29,1.72,1.52.77,2.09,1.34,1.72,1.72.76-.38,1.34-.38,1.73,0,.75.39,1.52.77,2.29,1.15.75.38,2,1.15,3.72,2.29,1.73,1.15,2.96,1.72,3.73,1.72,1.14,1.15,2.29,1.92,3.44,2.29,0,.39.38.86,1.14,1.43.76.57,1.15,1.06,1.15,1.43,4.58,1.15,5.74,1.72,3.43,1.72,0-.76,2.1.2,6.31,2.87.38,0,1.15.57,2.29,1.72,1.15,1.15,2.38,1.43,3.73.86,1.33-.57,2.48-.29,3.44.86.94,1.15,1.62,1.82,2,2.01.38.2.95.48,1.72.86.76.38,1.34.38,1.73,0-.39.38,0,.77,1.14,1.15,1.15.38,2.09.57,2.87.57,4.58,3.06,6.88,3.64,6.88,1.72,3.44.38,4.4.57,2.87.57,0,.38,1.15.57,3.44.57.38,0,1.91-.19,4.58-.57,1.53-.38,2.3.13,2.3,1.51.75,0,1.33.17,1.72.5.38.34,1.72.5,4.01.5l5.16,1.51h13.76c0,.38,1.34.38,4.02,0,.76-1.91,1.91-1.91,3.44,0h2.86c1.15,0,2.39-.25,3.73-.75,1.34-.5,2.58-.75,3.73-.75,2.67-.66,5.35-1.16,8.03-1.51,4.96-1.43,7.45-1.77,7.45-1h1.72c.76-.38,1.24-.48,1.44-.29.19.2,1.43-.09,3.72-.86.76,0,1.82-.19,3.16-.57,1.34-.38,2.58-.57,3.73-.57,0,.77,1.14.39,3.43-1.15,2.3-1.52,3.82-2.48,4.59-2.87.75-.38,1.33-.76,1.72-1.15,2.67-1.91,4.3-2.58,4.87-2.01s1.34.57,2.29,0c.95-.57,1.73-1.15,2.29-1.72.58-.57,1.24-.95,2.01-1.15.75-.19,1.33-.38,1.72-.57.38-.19.66-.29.86-.29s.48-.19.85-.57c.38-.38,2.87-1.33,7.46-2.87,2.29,0,4.77-1.15,7.45-3.44.38,0,.86-.76,1.43-2.29.58-1.52,1.05-2.29,1.44-2.29,0,1.15,1.33,0,4.01-3.44,2.67,0,4.02-1.91,4.02-5.73,1.14-1.15,1.91-2.2,2.29-3.15.38-.95,1.14-2.1,2.29-3.44,1.15-1.33,2-2.48,2.58-3.44.58-.95.95-1.91,1.15-2.87.19-.95,1.81-1.81,4.87-2.58,0-.38.38-.66,1.14-.86.76-.19,1.15-.48,1.15-.86,0,.77.58-.19,1.72-2.87,1.92-1.52,3.06-3.63,3.44-6.31.38-.38.86-.86,1.44-1.43.57-.57,1.23-.86,2-.86-.39-1.15-.1-1.72.85-1.72s1.63-.57,2.01-1.72c.38-1.15.66-1.62.85-1.43.19.2.86-1.43,2.01-4.87,1.9-1.52,2.87-2.96,2.87-4.3s.47-2.77,1.43-4.3c.95-1.52,1.72-2.87,2.29-4.01.58-1.15.95-2.29,1.15-3.44.19-1.15.66-1.91,1.43-2.29.76-.38,1.34-.76,1.73-1.15.37-.38.75-.76,1.14-1.15.38-.38.76-.86,1.15-1.43.38-.57.57-1.24.57-2.01,1.53-1.15,2.3-3.44,2.3-6.88,1.52-2.67,2.67-4.59,3.43-5.73.76-1.15,1.15-2.87,1.15-5.16,0-.38.19-1.05.58-2.01.38-.95.65-1.62.85-2.01.19-.38.66-1.72,1.44-4.01.76-2.29,1.23-3.63,1.43-4.01.19-.38.76-1.15,1.73-2.29.94-1.15,1.62-2.19,2-3.15.38-.95.95-2.01,1.72-3.15l2.87-2.87c.76-2.29,1.53-4.01,2.29-5.16.76-3.44,1.44-6.02,2.01-7.74.57-1.72.94-3.44,1.14-5.16.19-1.72.66-2.77,1.44-3.15,0-1.52-.2-2.48-.58-2.87.38-.76.85-1.43,1.43-2.01s1.24-.86,2.01-.86c0-1.52.28-2.77.85-3.73.58-.95.86-1.72.86-2.29s.19-1.34.58-2.29c.38-.95.57-1.81.57-2.58v-6.88c0-.76.38-1.52,1.15-2.29v-2.29c0-.76.19-1.43.58-2.01.38-.57.58-1.24.58-2.01.37-2.29.57-4.01.57-5.16-.38-.38-.76-1.52-1.14-3.44v-1.15l-.58-1.15.58-2.87c1.91,0,2.29-2.1,1.14-6.31-.38-2.67-.57-4.77-.57-6.31l-.58-5.16c0-1.91.19-3.06.58-3.44.75-1.15.75-2.87,0-5.16,0-.76.19-1.81.57-3.15.38-1.33.58-2.38.58-3.15,0-4.59-.2-6.88-.58-6.88,0-3.82-.2-6.68-.57-8.6.37,0,.57-1.52.57-4.59,0-2.29-.1-4.01-.29-5.16-.19-1.15-.48-2.48-.85-4.01v-3.44c-.77-3.06-1.15-4.77-1.15-5.16v-8.03c-1.91-5.35-2.87-7.45-2.87-6.31.38-1.52.38-2.29,0-2.29l-.57-2.87v-4.59c-.77-4.96-1.15-7.64-1.15-8.03-1.15-3.06-2-5.54-2.58-7.45-.58-1.91-.86-3.63-.86-5.16,0-.38-.2-1.15-.58-2.29v-2.29c-.76-1.52-1.24-2.58-1.43-3.15-.2-.57-.29-1.05-.29-1.43.38-3.44,0-5.54-1.14-6.31-.77-2.29-1.35-4.39-1.73-6.31,0-.38-.2-1.05-.58-2.01-.38-.95-.57-1.62-.57-2.01-1.15-2.29-1.93-4.1-2.3-5.45-.38-1.33-.66-2.87-.85-4.59-.2-1.72-.49-3.53-.86-5.45,0-.38-.29-1.15-.86-2.29-.57-1.15-.85-2.1-.85-2.87-1.54-1.52-2.68-2.67-3.44-3.44-.77-.76-1.53-2.1-2.29-4.01-.39-1.52-1.25-3.34-2.58-5.45-1.35-2.1-2-2.38-2-.86-2.3-1.91-3.64-3.44-4.02-4.59,0,.77-.39-.19-1.14-2.87-2.3,0-3.83-1.33-4.59-4.01-1.53-1.52-2.29-2.67-2.29-3.44-1.92-2.29-3.63-3.63-5.16-4.01-1.53-.38-3.07-1.52-4.58-3.44-1.54-1.91-2.78-3.15-3.73-3.73-.95-.57-1.92-1.43-2.87-2.58s-1.82-1.72-2.58-1.72l-4.58-2.87c-1.53-.38-2.78-1.15-3.73-2.29-.95-1.15-1.53-1.91-1.72-2.29-.2-.38-.58-.66-1.15-.86-.57-.19-1.24-.47-2-.86-.77-.38-1.43-.66-2-.86-.58-.19-1.63-1.24-3.16-3.15-3.07,0-4.97-1.33-5.74-4.01-3.07-1.52-4.58-2.1-4.58-1.72h-2.29c-1.92-.73-3.07-1.39-3.44-1.94-.39-.56-.58-.84-.58-.84h0s-.2-.18-.57-.56c-.39-.37-.86-.83-1.44-1.39h0Zm-75.97,15.05c2.29.39,3.43.39,3.43,0,1.53-.38,2.96-.76,4.31-1.15,1.33-.38,2.58-.95,3.72-1.72,0,.39.86.67,2.58.86,1.73.2,2.58.48,2.58.86,2.29,0,3.73.2,4.31.57.57.39.85.77.85,1.15h4.59c.75.77,1.52.96,2.29.57h4.01c1.15.39,2.1.57,2.87.57,1.15,1.15,2.29,1.72,3.44,1.72,1.52,1.15,3.24,2.01,5.16,2.58,1.91.57,3.24,1.15,4.01,1.72.76.57,1.73,1.63,2.87,3.15,2.67,1.15,4.59,2.2,5.74,3.15,1.15.96,2.29,1.63,3.44,2.01-1.15,0,.19.57,4.01,1.72.38.77,1.15,1.72,2.3,2.87,1.14,1.15,1.91,2.68,2.29,4.59.38.39.94,1.15,1.72,2.29.76,1.15,1.34,2.29,1.72,3.44,2.3,1.92,3.82,3.64,4.59,5.16.38,0,.85.57,1.43,1.72.58,1.15.95,1.92,1.15,2.29.19.39.48.96.85,1.72.38.77.76,1.53,1.15,2.29.38.77,1.15,2.11,2.29,4.01,1.91,4.21,2.87,6.88,2.87,8.03s.19,2.01.58,2.58c.38.57.66.96.86,1.15.19.2.47.67.85,1.43.38.77.76,2.29,1.15,4.59.76,0,.94,1.92.58,5.73.75,0,1.33.96,1.72,2.87,2.29,0,2.48,1.53.58,4.59,0,3.06.58,4.78,1.72,5.16,0,2.29.09,3.64.29,4.01.19.38.86.96,2,1.72v8.6c.76,0,.95,1.92.58,5.73.76,0,.95.96.58,2.87.38-.76.58,3.64.58,13.19,0,3.83.37,5.73,1.14,5.73s1.34.77,1.72,2.29c.38,1.53.29,2.49-.28,2.87-.58.38-1.06.86-1.44,1.43-.39.57-.58,1.25-.58,2.01,0,.38.19.96.58,1.72v1.15c0-.38-.2.77-.58,3.44l-1.14,5.73c0,4.97-.2,6.88-.58,5.73v1.15c.38.77.58,1.34.58,1.72,0-.38-.2.2-.58,1.72.38,7.27.76,11.47,1.15,12.61.75,1.53.37,2.68-1.15,3.44,0,1.53.19,4.01.58,7.45v6.88c1.14.77,1.62,1.63,1.43,2.58-.2.96,0,3.15.58,6.59.58,3.44.66,5.16.29,5.16-.39.77-.67,1.15-.86,1.15-.2,0-.29,1.34-.29,4.01-1.14,0-.95,2.49.58,7.45.76,2.29,1.15,4.01,1.15,5.16-.39,0-.58,3.44-.58,10.32-.39.39-.58,3.06-.58,8.03,0,1.15-.39,1.72-1.14,1.72v6.31c-.39,2.68-.58,4.78-.58,6.31-.77,0-.58,1.72.58,5.16,0-1.15-.77.77-2.3,5.73-.76,1.92-.76,3.64,0,5.16,0-.38,0,.77,0,3.44-1.92,6.5-2.77,9.94-2.58,10.32.19.38.09,1.15-.28,2.29-.39,1.15-.58,2.11-.58,2.87v5.16c0,.77-.2,1.72-.58,2.87-.39,1.15-.58,2.1-.58,2.87-.39,3.06-.77,5.36-1.14,6.88l-1.73,5.16v2.87c-.39,1.53-.58,2.49-.58,2.87-.76,1.92-1.34,3.25-1.72,4.01-3.07,1.92-4.4,4.59-4.01,8.03.38,1.92-.96,4.4-4.02,7.45-.39.77-.77,1.53-1.14,2.29,0-.76.18,0,.57,2.29v2.29c.76,0,.29,1.25-1.43,3.73-1.73,2.49-2.78,4.4-3.16,5.73-.39,1.34-.77,2.2-1.15,2.58-.38.39-.76.67-1.14.86-.39.2-.77.48-1.15.86-.39.38-.66,1.34-.85,2.87-.2,1.53-.67,2.58-1.44,3.15-.76.57-1.14,2.2-1.14,4.87-1.15,1.15-1.92,2.11-2.3,2.87-3.43,1.92-5.45,3.15-6.01,3.73-.58.57-2.2,2.39-4.87,5.45-2.68,1.53-3.44,2.29-2.3,2.29-.38.77-.95,1.53-1.72,2.29-.77.77-1.63,1.25-2.58,1.43-.96.2-3.92.86-8.89,2.01-1.53.77-2.78,1.15-3.72,1.15s-1.91.29-2.87.86c-.96.57-1.82.86-2.58.86s-1.64-.19-2.58-.57c-.96-.38-1.64-.57-2.01-.57,0-.38-.76-.38-2.29,0-4.58-.38-7.07-.57-7.45-.57-1.92.38-3.25.38-4.01,0h-6.89c0-.38-.58-.76-1.72-1.15-1.54-.38-2.29-.38-2.29,0-3.83-.38-6.22-.76-7.17-1.15-.95-.38-2.39-.76-4.3-1.15,0-.38-1.15-.86-3.44-1.43-2.29-.57-3.43-1.05-3.43-1.43-2.68-.38-4.41-1.33-5.16-2.87-1.15-.38-2.21-.76-3.16-1.15-.96-.38-2.1-.57-3.44-.57s-2.58-.66-3.73-2.01c-1.14-1.33-2.1-2.77-2.87-4.3-.76-1.52-1.53-2.48-2.29-2.87-.76-.38-1.34-.66-1.72-.86-.39-.19-1.25-.76-2.58-1.72-1.34-.95-2-1.62-2-2.01-2.68-1.52-3.64-2.29-2.87-2.29-.39-1.15-1.54-2.29-3.44-3.44,0-.38-1.24-1.52-3.73-3.44-2.49-1.91-4.21-3.24-5.16-4.01-.95-.76-1.82-1.34-2.58-1.72-.76-.38-1.34-.76-1.72-1.15-.77-4.59-1.25-7.07-1.43-7.45-.2-.38-1.25-1.24-3.16-2.58-1.92-1.33-3.07-2.67-3.44-4.01-.39-1.33-1.72-2.38-4.02-3.15-.38-1.52-.95-2.67-1.72-3.44-1.14-2.29-2.1-4.2-2.87-5.73l-2.29-4.01c-.39-1.15-.77-2.01-1.15-2.58-.38-.57-.95-1.05-1.72-1.43-.77-5.73-1.14-8.98-1.14-9.75-1.15-3.44-1.92-5.92-2.3-7.45-.38,0-.57-.76-.57-2.29s-.1-2.38-.29-2.58c-.2-.19-.58-1.52-1.15-4.01-.58-2.48-1.05-4.1-1.43-4.87-.39-.76-.58-2.48-.58-5.16v-4.01c0-.38-.29-.95-.86-1.72-.58-.76-.95-1.72-1.14-2.87-.2-1.15-.49-2.1-.86-2.87-1.15-3.82-1.34-5.73-.58-5.73,0-1.91-.2-2.96-.58-3.15-.38-.19-.66-.38-.85-.57-.2-.19-.29-.66-.29-1.43.38-1.52.95-3.06,1.72-4.59-.39-1.52-.2-3.44.58-5.73-.77,1.15-1.15-.76-1.15-5.73-.38,0-.38-.95,0-2.87.76-1.91.95-3.06.58-3.44-.39,0-1.14-3.63-2.29-10.89,0,.38.58-.95,1.72-4.01.38-1.15-.19-2.67-1.72-4.59-.39-.76,0-2.67,1.15-5.73.38-2.67,0-4.39-1.15-5.16,0-3.06,0-4.39,0-4.01,1.15-.38,1.34-1.72.58-4.01,0-2.29-.2-4.59-.58-6.88,2.29,0,3.06-4.78,2.29-14.33v-5.16c0-3.44-.2-4.39-.58-2.87l1.15-6.88c0-1.15.38-1.91,1.15-2.29-.39-1.52-.58-2.48-.58-2.87-.39,0-.39-2.29,0-6.88.38-.38.58-2.67.58-6.88-.77,0-.2-1.52,1.72-4.59,1.15-1.91,1.62-3.24,1.43-4.01-.19-.76,0-1.52.58-2.29.58-.76.86-1.34.86-1.72s.19-.95.58-1.72c0-.38.09-.66.29-.86.19-.19.09-1.43-.29-3.73,0-4.2.19-6.31.57-6.31.38-2.29.95-3.82,1.73-4.59v-2.87c.38-1.52.58-2.48.58-2.87,0,1.92.57-.19,1.72-6.31,0-1.52.38-2.29,1.14-2.29,0-1.52.58-3.15,1.73-4.87,1.14-1.72,1.72-3.06,1.72-4.01s.38-1.43,1.15-1.43c.76-2.67,1.14-4.77,1.14-6.31.38,0,.58-.76.58-2.29.76,0,1.15-.76,1.15-2.29,0-1.91-.2-2.87-.58-2.87-1.92-2.29-.96-3.44,2.87-3.44,2.29-1.91,3.63-3.34,4.01-4.3.38-.95.95-2.2,1.73-3.73.38,0,.38-1.91,0-5.73.38-1.91,1.33-2.87,2.87-2.87.38-1.15,1.04-2.38,2-3.73.95-1.34,1.91-2.38,2.87-3.15.95-.76,1.72-1.43,2.29-2.01.58-.57,1.43-1.43,2.58-2.58,2.29,0,3.44-2.29,3.44-6.88.38,0,.75-1.72,1.14-5.16.76-.76,1.63-1.62,2.58-2.58.95-.95,1.73-1.81,2.29-2.58.58-.76,2.01-1.52,4.31-2.29.76-1.15,2.09-1.72,4.01-1.72.38-1.15,1.34-1.91,2.87-2.29,1.53-.38,2.87-1.72,4.02-4.01.75,0,1.62-.57,2.58-1.72.94-1.15,1.81-1.72,2.58-1.72,2.29.77,3.44.39,3.44-1.15,1.91.39,3.05.39,3.43,0,2.29-.38,3.63-.95,4.02-1.72,2.29-.38,3.06-.57,2.29-.57,1.14-.38,2.29-.76,3.44-1.15,1.14-.38,1.91-.76,2.29-1.15,1.91,0,3.06-1.15,3.43-3.44h0c2.68-.76,4.4-.38,5.17,1.15h0Zm480.19-15.05c-.58-.56-1.15-1.01-1.72-1.39-.58-.37-1.35-.65-2.3-.83-.95-.19-2-.84-3.15-1.95-2.3-1.11-4.22-1.67-5.74-1.67-3.44-1.49-5.93-2.6-7.45-3.34,0-.73-2.68-1.11-8.03-1.11,0-1.11-2.3-1.68-6.89-1.68-1.14-.73-2.1-1.11-2.87-1.11-3.43-1.12-5.16-1.49-5.16-1.11h-10.32c-1.15-.38-1.72-.38-1.72,0,0-.89-1.15-1.33-3.44-1.33-.77-.9-1.53-1.78-2.29-2.68-.77,0-1.54.39-2.29,1.15-3.44,1.15-5.16.77-5.16-1.15h-2.3c-1.14-.38-2.1-.76-2.86-1.15-.77-.38-5.36-.57-13.76-.57-1.15,0-2.58.24-4.31.72-1.72.48-2.87.84-3.43,1.08-.58.24-1.83.72-3.73,1.43-1.91.72-3.44,1.56-4.58,2.51h-12.62c-.76.39-1.53.57-2.29.57s-1.34.1-1.72.29c-.39.2-.86.67-1.44,1.43-.57.77-1.72,1.25-3.43,1.43-1.73.2-2.78.48-3.16.86-2.68,0-4.4.57-5.16,1.72-1.92,1.53-3.83,2.68-5.74,3.44-.39,0-1.06.29-2,.86-.96.57-1.54.77-1.73.57-.19-.19-1.24.57-3.15,2.29-1.92,1.72-4.22,2.58-6.89,2.58-1.92,1.15-3.53,2.01-4.87,2.58-1.34.57-2.49.96-3.44,1.15-.95.2-1.72.48-2.29.86-.58.39-1.34.96-2.29,1.72-.96.77-1.34.96-1.15.57.19-.38-.48-.09-2,.86-1.53.96-2.68,1.72-3.44,2.29-.76.57-2.67,2.2-5.73,4.87-2.3,1.15-3.44,1.92-3.44,2.29-1.92,0-3.44.96-4.58,2.87,2.29,0,1.33.57-2.87,1.72,0,.39-1.15,1.63-3.44,3.73-2.29,2.11-3.64,3.54-4.02,4.3-.38.77-1.34,2.29-2.86,4.59-.77,0-1.15.39-1.15,1.15-1.92,1.53-3.35,2.97-4.3,4.3-.96,1.34-1.83,2.39-2.58,3.15-.77.77-1.25,1.43-1.44,2.01-.2.57-.67,1.53-1.43,2.87-.77,1.34-1.44,2.58-2.01,3.73-.57,1.15-1.05,2.29-1.43,3.44-1.15,3.83-1.92,5.93-2.29,6.31-.39.39-1.06,1.06-2,2.01-.96.96-1.44,1.82-1.44,2.58-1.14,3.44-2.2,5.83-3.16,7.17-.95,1.34-1.53,2.29-1.72,2.87-.2.57-.67,1.63-1.44,3.15.38-.76.19.96-.57,5.16-.39,0-1.15,1.92-2.29,5.73-.77,1.15-1.54,2.11-2.3,2.87v5.16c0,.38-.19.96-.57,1.72-.39.77-.58,1.34-.58,1.72-1.15,1.15-1.92,2.29-2.29,3.44,0,1.92.38,2.87,1.14,2.87-.39-1.52-1.14-.19-2.29,4.01v3.44c-.39,1.53-.77,2.49-1.14,2.87-.39.38-.86.96-1.44,1.72-.58.77-.86,1.34-.86,1.72v3.44l-.57,2.87c.38,0,.38.77,0,2.29-.39,1.53-.77,2.29-1.15,2.29-1.15,3.06-1.43,4.97-.86,5.73.58.77.29,2.39-.85,4.87-1.15,2.49-1.73,3.92-1.73,4.3-1.53,0-2.29,4.21-2.29,12.61-.76.39-1.14,2.11-1.14,5.16v2.29c0,2.29-.2,4.21-.58,5.73-.39,1.53-.86,3.06-1.44,4.59-.57,1.53-.66,2.68-.29,3.44,0,2.68-.28,4.87-.85,6.59-.58,1.72-.86,2.96-.86,3.73.38,2.29.38,3.83,0,4.59,0,.38-.2.77-.58,1.15v1.15c.76,1.92,1.15,3.64,1.15,5.16v6.31l.58,1.15c-.39,1.92-.39,3.25,0,4.01.38,0,.57.77.57,2.29-.38,3.44,0,6.31,1.15,8.6v6.88c-.39,2.68-.39,4.4,0,5.16.38,1.15.76,1.92,1.15,2.29,0,1.92.38,3.06,1.14,3.44,0,1.15-.2,2.11-.58,2.87.76,6.88.76,10.32,0,10.32,0,1.53.48,2.68,1.44,3.44.95.77,1.62,1.92,2,3.44v5.16c.76.77,1.15,1.34,1.15,1.72v5.73c1.14,0,1.72.77,1.72,2.29.76,0,.95,1.92.58,5.73,1.52,1.15,2.29,2.68,2.29,4.59.38,0,.58,3.06.58,9.17-.39,0,.19.96,1.72,2.87v3.44c.38.39,1.05.77,2,1.15.95.39,1.44,2.87,1.44,7.45v4.01c.76,1.92,1.43,3.54,2,4.87.58,1.34,1.05,2.2,1.44,2.58,1.52,1.53,2.58,3.06,3.15,4.59.58,1.53.66,3.06.29,4.59,1.15.77,1.92,1.72,2.29,2.87l.58,4.01c1.15,1.53,1.73,1.92,1.73,1.15,1.14.77,1.91,2.49,2.29,5.16-.77,0,.19,1.34,2.87,4.01.75.38,1.43,1.15,2,2.29.58,1.15.95,2.11,1.14,2.87.19.77.76,1.82,1.73,3.15.94,1.34,1.52,2.2,1.72,2.58.19.38.29.77.29,1.15s1.15,1.72,3.44,4.01c.38.77,1.23,1.63,2.58,2.58,1.33.96,2,1.82,2,2.58,1.52,1.92,2.77,3.44,3.73,4.59.94,1.15,1.72,2.11,2.29,2.87.58.77,1.14,1.25,1.72,1.43.58.2,1.24,1.06,2,2.58,1.92,0,3.44,1.53,4.59,4.59,0,.38.65.96,2,1.72,1.33.77,2.09,1.34,2.29,1.72.19.39.76,1.34,1.72,2.87.95,1.53,1.82,2.29,2.58,2.29,1.53,1.53,3.06,2.87,4.59,4.01.38,0,1.33.96,2.87,2.87,1.52,0,2.29.57,2.29,1.72,1.52.77,2.09,1.34,1.72,1.72.76-.38,1.34-.38,1.72,0,.76.39,1.53.77,2.3,1.15.75.38,2,1.15,3.72,2.29,1.73,1.15,2.96,1.72,3.73,1.72,1.14,1.15,2.29,1.92,3.44,2.29,0,.39.37.86,1.14,1.43.76.57,1.15,1.06,1.15,1.43,4.58,1.15,5.74,1.72,3.43,1.72,0-.76,2.1.2,6.31,2.87.38,0,1.15.57,2.29,1.72,1.15,1.15,2.38,1.43,3.73.86,1.33-.57,2.48-.29,3.43.86.95,1.15,1.63,1.82,2.01,2.01.38.2.94.48,1.72.86.76.38,1.34.38,1.72,0-.38.38,0,.77,1.15,1.15,1.15.38,2.09.57,2.87.57,4.58,3.06,6.88,3.64,6.88,1.72,3.44.38,4.4.57,2.87.57,0,.38,1.15.57,3.44.57.38,0,1.91-.19,4.58-.57,1.53-.38,2.29.13,2.29,1.51.76,0,1.34.17,1.73.5.38.34,1.72.5,4.01.5l5.16,1.51h13.76c0,.38,1.34.38,4.02,0,.75-1.91,1.91-1.91,3.43,0h2.87c1.15,0,2.38-.25,3.73-.75,1.33-.5,2.58-.75,3.73-.75,2.67-.66,5.35-1.16,8.03-1.51,4.96-1.43,7.45-1.77,7.45-1h1.72c.76-.38,1.24-.48,1.44-.29.19.2,1.43-.09,3.72-.86.76,0,1.82-.19,3.16-.57,1.33-.38,2.58-.57,3.73-.57,0,.77,1.14.39,3.43-1.15,2.29-1.52,3.82-2.48,4.59-2.87.75-.38,1.33-.76,1.72-1.15,2.67-1.91,4.3-2.58,4.87-2.01.58.57,1.34.57,2.29,0,.95-.57,1.73-1.15,2.29-1.72.58-.57,1.24-.95,2.01-1.15.75-.19,1.33-.38,1.72-.57.38-.19.66-.29.86-.29s.48-.19.85-.57c.38-.38,2.87-1.33,7.46-2.87,2.29,0,4.77-1.15,7.45-3.44.38,0,.85-.76,1.43-2.29.58-1.52,1.05-2.29,1.44-2.29,0,1.15,1.33,0,4.01-3.44,2.67,0,4.02-1.91,4.02-5.73,1.14-1.15,1.91-2.2,2.29-3.15.38-.95,1.14-2.1,2.29-3.44,1.15-1.33,2-2.48,2.58-3.44.58-.95.95-1.91,1.15-2.87.19-.95,1.81-1.81,4.87-2.58,0-.38.38-.66,1.14-.86.76-.19,1.15-.48,1.15-.86,0,.77.58-.19,1.72-2.87,1.92-1.52,3.06-3.63,3.44-6.31.38-.38.86-.86,1.43-1.43.58-.57,1.24-.86,2.01-.86-.39-1.15-.1-1.72.85-1.72s1.63-.57,2.01-1.72c.37-1.15.65-1.62.85-1.43.19.2.86-1.43,2.01-4.87,1.9-1.52,2.86-2.96,2.86-4.3s.48-2.77,1.44-4.3c.95-1.52,1.72-2.87,2.29-4.01.58-1.15.95-2.29,1.15-3.44.19-1.15.66-1.91,1.43-2.29.76-.38,1.34-.76,1.72-1.15.38-.38.76-.76,1.15-1.15.38-.38.76-.86,1.15-1.43.37-.57.57-1.24.57-2.01,1.53-1.15,2.29-3.44,2.29-6.88,1.53-2.67,2.68-4.59,3.44-5.73.76-1.15,1.15-2.87,1.15-5.16,0-.38.19-1.05.58-2.01.37-.95.65-1.62.85-2.01.19-.38.66-1.72,1.44-4.01.75-2.29,1.23-3.63,1.43-4.01.19-.38.76-1.15,1.73-2.29.94-1.15,1.62-2.19,2-3.15.38-.95.94-2.01,1.72-3.15l2.87-2.87c.76-2.29,1.53-4.01,2.29-5.16.76-3.44,1.44-6.02,2-7.74.58-1.72.95-3.44,1.15-5.16.19-1.72.66-2.77,1.43-3.15,0-1.52-.19-2.48-.57-2.87.38-.76.85-1.43,1.43-2.01s1.24-.86,2-.86c0-1.52.29-2.77.86-3.73.58-.95.86-1.72.86-2.29s.19-1.34.58-2.29c.37-.95.57-1.81.57-2.58v-6.88c0-.76.38-1.52,1.15-2.29v-2.29c0-.76.19-1.43.58-2.01.38-.57.57-1.24.57-2.01.38-2.29.58-4.01.58-5.16-.39-.38-.76-1.52-1.14-3.44v-1.15l-.58-1.15.58-2.87c1.91,0,2.29-2.1,1.14-6.31-.39-2.67-.58-4.77-.58-6.31l-.57-5.16c0-1.91.19-3.06.57-3.44.76-1.15.76-2.87,0-5.16,0-.76.19-1.81.58-3.15.38-1.33.58-2.38.58-3.15,0-4.59-.2-6.88-.58-6.88,0-3.82-.2-6.68-.58-8.6.38,0,.58-1.52.58-4.59,0-2.29-.1-4.01-.29-5.16-.2-1.15-.48-2.48-.85-4.01v-3.44c-.77-3.06-1.15-4.77-1.15-5.16v-8.03c-1.91-5.35-2.87-7.45-2.87-6.31.38-1.52.38-2.29,0-2.29l-.58-2.87v-4.59c-.76-4.96-1.14-7.64-1.14-8.03-1.15-3.06-2-5.54-2.58-7.45-.58-1.91-.86-3.63-.86-5.16,0-.38-.2-1.15-.58-2.29v-2.29c-.76-1.52-1.24-2.58-1.43-3.15-.2-.57-.29-1.05-.29-1.43.38-3.44,0-5.54-1.15-6.31-.76-2.29-1.34-4.39-1.72-6.31,0-.38-.2-1.05-.58-2.01-.39-.95-.58-1.62-.58-2.01-1.14-2.29-1.92-4.1-2.29-5.45-.38-1.33-.66-2.87-.85-4.59-.2-1.72-.49-3.53-.86-5.45,0-.38-.29-1.15-.86-2.29-.57-1.15-.85-2.1-.85-2.87-1.54-1.52-2.68-2.67-3.44-3.44-.77-.76-1.53-2.1-2.29-4.01-.39-1.52-1.25-3.34-2.58-5.45-1.35-2.1-2.01-2.38-2.01-.86-2.29-1.91-3.63-3.44-4.01-4.59,0,.77-.39-.19-1.15-2.87-2.29,0-3.82-1.33-4.58-4.01-1.53-1.52-2.29-2.67-2.29-3.44-1.91-2.29-3.64-3.63-5.16-4.01-1.53-.38-3.07-1.52-4.58-3.44-1.54-1.91-2.78-3.15-3.73-3.73-.96-.57-1.92-1.43-2.87-2.58s-1.82-1.72-2.58-1.72l-4.58-2.87c-1.54-.38-2.78-1.15-3.73-2.29-.95-1.15-1.53-1.91-1.72-2.29-.2-.38-.58-.66-1.15-.86-.58-.19-1.24-.47-2-.86-.77-.38-1.43-.66-2-.86-.58-.19-1.64-1.24-3.16-3.15-3.07,0-4.97-1.33-5.74-4.01-3.07-1.52-4.58-2.1-4.58-1.72h-2.29c-1.92-.73-3.07-1.39-3.44-1.94-.39-.56-.58-.84-.58-.84h0s-.2-.18-.58-.56c-.38-.37-.85-.83-1.43-1.39h0Zm-75.98,15.05c2.3.39,3.44.39,3.44,0,1.53-.38,2.96-.76,4.3-1.15,1.34-.38,2.59-.95,3.73-1.72,0,.39.86.67,2.58.86,1.72.2,2.58.48,2.58.86,2.29,0,3.73.2,4.31.57.57.39.85.77.85,1.15h4.59c.75.77,1.52.96,2.29.57h4.01c1.15.39,2.09.57,2.87.57,1.15,1.15,2.29,1.72,3.44,1.72,1.52,1.15,3.24,2.01,5.16,2.58,1.9.57,3.24,1.15,4.01,1.72.76.57,1.73,1.63,2.87,3.15,2.67,1.15,4.59,2.2,5.74,3.15,1.15.96,2.29,1.63,3.44,2.01-1.15,0,.19.57,4.01,1.72.38.77,1.15,1.72,2.29,2.87,1.15,1.15,1.92,2.68,2.3,4.59.38.39.94,1.15,1.72,2.29.76,1.15,1.34,2.29,1.72,3.44,2.29,1.92,3.82,3.64,4.59,5.16.38,0,.85.57,1.43,1.72.58,1.15.95,1.92,1.15,2.29.19.39.48.96.85,1.72.38.77.76,1.53,1.15,2.29.38.77,1.14,2.11,2.29,4.01,1.91,4.21,2.87,6.88,2.87,8.03s.19,2.01.58,2.58c.38.57.66.96.85,1.15.19.2.48.67.86,1.43.38.77.76,2.29,1.15,4.59.75,0,.94,1.92.57,5.73.76,0,1.34.96,1.73,2.87,2.29,0,2.48,1.53.58,4.59,0,3.06.57,4.78,1.72,5.16,0,2.29.09,3.64.29,4.01.19.38.86.96,2,1.72v8.6c.76,0,.95,1.92.58,5.73.76,0,.95.96.58,2.87.38-.76.57,3.64.57,13.19,0,3.83.38,5.73,1.15,5.73s1.34.77,1.72,2.29c.38,1.53.29,2.49-.29,2.87-.57.38-1.05.86-1.43,1.43-.39.57-.58,1.25-.58,2.01,0,.38.19.96.58,1.72v1.15c0-.38-.2.77-.58,3.44l-1.14,5.73c0,4.97-.2,6.88-.58,5.73v1.15c.38.77.58,1.34.58,1.72,0-.38-.2.2-.58,1.72.38,7.27.76,11.47,1.14,12.61.76,1.53.38,2.68-1.14,3.44,0,1.53.19,4.01.58,7.45v6.88c1.14.77,1.62,1.63,1.43,2.58-.2.96,0,3.15.58,6.59.58,3.44.66,5.16.29,5.16-.39.77-.67,1.15-.86,1.15-.2,0-.29,1.34-.29,4.01-1.14,0-.95,2.49.58,7.45.76,2.29,1.15,4.01,1.15,5.16-.39,0-.58,3.44-.58,10.32-.39.39-.58,3.06-.58,8.03,0,1.15-.39,1.72-1.15,1.72v6.31c-.38,2.68-.57,4.78-.57,6.31-.77,0-.58,1.72.57,5.16,0-1.15-.76.77-2.29,5.73-.76,1.92-.76,3.64,0,5.16,0-.38,0,.77,0,3.44-1.92,6.5-2.78,9.94-2.58,10.32.19.38.09,1.15-.29,2.29-.38,1.15-.57,2.11-.57,2.87v5.16c0,.77-.2,1.72-.58,2.87-.39,1.15-.58,2.1-.58,2.87-.39,3.06-.77,5.36-1.15,6.88l-1.72,5.16v2.87c-.39,1.53-.58,2.49-.58,2.87-.76,1.92-1.34,3.25-1.72,4.01-3.07,1.92-4.4,4.59-4.02,8.03.38,1.92-.95,4.4-4.01,7.45-.39.77-.77,1.53-1.15,2.29,0-.76.19,0,.58,2.29v2.29c.76,0,.29,1.25-1.43,3.73-1.73,2.49-2.78,4.4-3.16,5.73-.39,1.34-.77,2.2-1.15,2.58-.38.39-.76.67-1.14.86-.39.2-.77.48-1.15.86-.39.38-.67,1.34-.85,2.87-.2,1.53-.67,2.58-1.44,3.15-.77.57-1.15,2.2-1.15,4.87-1.14,1.15-1.92,2.11-2.29,2.87-3.43,1.92-5.45,3.15-6.01,3.73-.58.57-2.21,2.39-4.88,5.45-2.68,1.53-3.43,2.29-2.29,2.29-.39.77-.95,1.53-1.72,2.29-.77.77-1.63,1.25-2.58,1.43-.96.2-3.93.86-8.89,2.01-1.53.77-2.78,1.15-3.72,1.15s-1.92.29-2.87.86c-.96.57-1.83.86-2.58.86s-1.64-.19-2.58-.57c-.96-.38-1.64-.57-2.01-.57,0-.38-.76-.38-2.29,0-4.58-.38-7.07-.57-7.45-.57-1.92.38-3.25.38-4.01,0h-6.89c0-.38-.58-.76-1.72-1.15-1.54-.38-2.29-.38-2.29,0-3.83-.38-6.22-.76-7.17-1.15-.95-.38-2.39-.76-4.3-1.15,0-.38-1.15-.86-3.44-1.43-2.29-.57-3.44-1.05-3.44-1.43-2.67-.38-4.4-1.33-5.16-2.87-1.14-.38-2.2-.76-3.15-1.15-.96-.38-2.11-.57-3.44-.57s-2.58-.66-3.73-2.01c-1.14-1.33-2.1-2.77-2.87-4.3-.76-1.52-1.53-2.48-2.29-2.87-.76-.38-1.34-.66-1.72-.86-.39-.19-1.25-.76-2.58-1.72-1.35-.95-2-1.62-2-2.01-2.68-1.52-3.64-2.29-2.87-2.29-.39-1.15-1.54-2.29-3.44-3.44,0-.38-1.25-1.52-3.73-3.44-2.49-1.91-4.21-3.24-5.16-4.01-.95-.76-1.82-1.34-2.58-1.72-.76-.38-1.34-.76-1.72-1.15-.77-4.59-1.25-7.07-1.44-7.45-.19-.38-1.24-1.24-3.15-2.58-1.92-1.33-3.07-2.67-3.44-4.01-.39-1.33-1.72-2.38-4.02-3.15-.38-1.52-.95-2.67-1.72-3.44-1.15-2.29-2.1-4.2-2.87-5.73l-2.29-4.01c-.39-1.15-.77-2.01-1.15-2.58-.38-.57-.95-1.05-1.72-1.43-.77-5.73-1.15-8.98-1.15-9.75-1.14-3.44-1.91-5.92-2.29-7.45-.38,0-.57-.76-.57-2.29s-.1-2.38-.29-2.58c-.2-.19-.58-1.52-1.15-4.01-.58-2.48-1.05-4.1-1.43-4.87-.39-.76-.58-2.48-.58-5.16v-4.01c0-.38-.29-.95-.86-1.72-.58-.76-.95-1.72-1.14-2.87-.2-1.15-.49-2.1-.86-2.87-1.15-3.82-1.35-5.73-.58-5.73,0-1.91-.2-2.96-.58-3.15-.38-.19-.66-.38-.85-.57-.2-.19-.29-.66-.29-1.43.38-1.52.94-3.06,1.72-4.59-.39-1.52-.2-3.44.58-5.73-.77,1.15-1.15-.76-1.15-5.73-.38,0-.38-.95,0-2.87.76-1.91.95-3.06.58-3.44-.39,0-1.14-3.63-2.29-10.89,0,.38.58-.95,1.72-4.01.38-1.15-.2-2.67-1.72-4.59-.39-.76,0-2.67,1.15-5.73.37-2.67,0-4.39-1.15-5.16,0-3.06,0-4.39,0-4.01,1.15-.38,1.34-1.72.58-4.01,0-2.29-.2-4.59-.58-6.88,2.29,0,3.06-4.78,2.29-14.33v-5.16c0-3.44-.2-4.39-.58-2.87l1.15-6.88c0-1.15.38-1.91,1.14-2.29-.38-1.52-.57-2.48-.57-2.87-.39,0-.39-2.29,0-6.88.38-.38.57-2.67.57-6.88-.76,0-.19-1.52,1.73-4.59,1.14-1.91,1.62-3.24,1.43-4.01-.2-.76,0-1.52.58-2.29.58-.76.86-1.34.86-1.72s.19-.95.58-1.72c0-.38.09-.66.28-.86.19-.19.09-1.43-.28-3.73,0-4.2.19-6.31.57-6.31.38-2.29.95-3.82,1.73-4.59v-2.87c.38-1.52.57-2.48.57-2.87,0,1.92.58-.19,1.73-6.31,0-1.52.38-2.29,1.14-2.29,0-1.52.58-3.15,1.73-4.87,1.14-1.72,1.72-3.06,1.72-4.01s.38-1.43,1.15-1.43c.75-2.67,1.14-4.77,1.14-6.31.38,0,.58-.76.58-2.29.76,0,1.15-.76,1.15-2.29,0-1.91-.2-2.87-.58-2.87-1.91-2.29-.96-3.44,2.87-3.44,2.29-1.91,3.62-3.34,4.01-4.3.38-.95.95-2.2,1.73-3.73.38,0,.38-1.91,0-5.73.38-1.91,1.33-2.87,2.87-2.87.37-1.15,1.04-2.38,2-3.73.94-1.34,1.91-2.38,2.87-3.15.94-.76,1.72-1.43,2.29-2.01.58-.57,1.43-1.43,2.58-2.58,2.29,0,3.44-2.29,3.44-6.88.38,0,.75-1.72,1.14-5.16.76-.76,1.63-1.62,2.58-2.58.95-.95,1.73-1.81,2.29-2.58.58-.76,2.01-1.52,4.31-2.29.75-1.15,2.09-1.72,4.01-1.72.38-1.15,1.34-1.91,2.87-2.29,1.53-.38,2.87-1.72,4.02-4.01.75,0,1.62-.57,2.58-1.72.94-1.15,1.81-1.72,2.58-1.72,2.29.77,3.43.39,3.43-1.15,1.91.39,3.06.39,3.44,0,2.29-.38,3.63-.95,4.02-1.72,2.29-.38,3.06-.57,2.29-.57,1.14-.38,2.29-.76,3.43-1.15,1.15-.38,1.92-.76,2.3-1.15,1.91,0,3.06-1.15,3.43-3.44h0c2.67-.76,4.4-.38,5.16,1.15h0Z"/>
</svg>